<svg xmlns="http://www.w3.org/2000/svg" style="display: none;">
  <!-- Соцсети -->
  <symbol viewBox="0 0 12 12" fill="none" xmlns="http://www.w3.org/2000/svg" id="viber">
<g clip-path="url(#clip0_1_15970)">
<path d="M6.40796 6.77975C6.27072 6.91708 6.04815 6.91708 5.91082 6.77975L4.31323 5.18216C4.24731 5.11624 4.21023 5.02679 4.21023 4.93359C4.21023 4.8403 4.24731 4.75095 4.31323 4.68494L4.59723 4.40103L3.76309 3.56689L3.07974 4.25024C2.84976 4.48022 2.84985 4.8544 3.07974 5.08438L6.0086 8.01343C6.11929 8.12411 6.26742 8.185 6.42572 8.185C6.58401 8.185 6.73214 8.12402 6.84283 8.01334L7.52618 7.33008L6.69204 6.49585L6.40796 6.77975Z" fill="#5D6C7B"/>
<path d="M11.4957 4.23541C11.4957 3.10831 11.0541 2.04593 10.2519 1.24384C9.4498 0.441742 8.38742 0 7.26041 0H4.75085C4.75085 0 4.75085 0 4.75076 0C3.62384 0 2.56146 0.441742 1.75946 1.24374C0.957367 2.04584 0.515625 3.10831 0.515625 4.23532V6.20792C0.515625 7.08069 0.78186 7.92032 1.28558 8.63599C1.72998 9.26733 2.32764 9.76044 3.02444 10.0732V11.2062C3.02444 11.7921 3.35248 11.9999 3.63336 12C3.83405 12 4.03482 11.9009 4.23019 11.7057L5.49243 10.4432H7.2605C8.38751 10.4432 9.44989 10.0015 10.252 9.1994C11.0541 8.39731 11.4958 7.33493 11.4958 6.20792L11.4957 4.23541ZM8.27197 7.57864L7.33997 8.51056C7.09644 8.75409 6.77179 8.88803 6.42572 8.88803C6.07965 8.88803 5.755 8.754 5.51147 8.51056L2.58252 5.58151C2.07852 5.07733 2.07852 4.25711 2.58252 3.75302L3.51453 2.82111C3.58044 2.7551 3.6698 2.71811 3.76309 2.71811C3.85629 2.71811 3.94574 2.7551 4.01166 2.82111L5.34302 4.15247C5.40894 4.21838 5.44592 4.30783 5.44592 4.40103C5.44592 4.49423 5.40894 4.58368 5.34293 4.6496L5.05902 4.9335L6.15948 6.03397L6.44348 5.74997C6.58081 5.61273 6.80338 5.61273 6.94061 5.75006L8.27197 7.08142C8.33798 7.14734 8.37497 7.23679 8.37497 7.32999C8.37497 7.42328 8.33798 7.51273 8.27197 7.57864ZM5.73944 3.41299C5.73944 3.2189 5.89682 3.06143 6.091 3.06143C7.30911 3.06143 8.30017 4.0524 8.30017 5.27042C8.30017 5.4646 8.14279 5.62198 7.94861 5.62198C7.75452 5.62198 7.59705 5.4646 7.59705 5.27042C7.59705 4.44012 6.92148 3.76456 6.091 3.76456C5.89682 3.76456 5.73944 3.60718 5.73944 3.41299ZM9.45474 5.62216C9.26056 5.62216 9.10318 5.46469 9.10318 5.2706C9.10327 4.46594 8.78989 3.70953 8.22098 3.14053C7.65198 2.57162 6.89557 2.25824 6.09091 2.25824C5.89682 2.25824 5.73935 2.10086 5.73935 1.90668C5.73935 1.71259 5.89682 1.55511 6.09091 1.55511C7.08334 1.55511 8.01636 1.94165 8.71811 2.6434C9.41995 3.34515 9.8064 4.27817 9.8063 5.2706C9.8063 5.46469 9.64893 5.62216 9.45474 5.62216Z" fill="#5D6C7B"/>
</g>
<defs>
<clipPath id="clip0_1_15970">
<rect width="12" height="12" fill="white"/>
</clipPath>
</defs>
</symbol>

  <symbol viewBox="0 0 12 12" fill="none" xmlns="http://www.w3.org/2000/svg" id="whatsapp">
<g clip-path="url(#clip0_1_15973)">
<path d="M5.99685 0.00378706C2.68509 0.00448977 0.0009558 2.68978 0.00165851 6.00153C0.00189275 7.14828 0.330971 8.2709 0.949824 9.23633L0.0168839 11.6569C-0.0327977 11.7856 0.0312894 11.9303 0.160026 11.98C0.188813 11.9911 0.219381 11.9968 0.25023 11.9967C0.278854 11.9969 0.307267 11.992 0.334181 11.9822L2.83271 11.0902C5.64383 12.841 9.342 11.9815 11.0928 9.17033C12.8436 6.35918 11.984 2.66104 9.17286 0.910259C8.21994 0.31675 7.11952 0.00268615 5.99685 0.00378706Z" fill="#5D6C7B"/>
<path d="M8.85557 7.02445C8.85557 7.02445 8.24344 6.72462 7.86016 6.52475C7.42642 6.30138 6.91672 6.71963 6.67686 6.9575C6.30356 6.8141 5.96261 6.59767 5.67396 6.32087C5.39711 6.03227 5.18068 5.69131 5.03732 5.31796C5.27519 5.07761 5.69244 4.56841 5.47008 4.13467C5.27269 3.7509 4.97038 3.13877 4.97038 3.13877C4.92796 3.05458 4.84178 3.00144 4.7475 3.00134H4.24781C3.52008 3.12703 2.99097 3.762 2.99855 4.50046C2.99855 5.28498 3.93749 6.79211 4.57063 7.42572C5.20377 8.05933 6.71087 8.99779 7.49589 8.99779C8.23435 9.00538 8.86932 8.47624 8.99501 7.74854V7.24884C8.99508 7.15356 8.94102 7.06654 8.85557 7.02445Z" fill="#F7F7F7"/>
</g>
<defs>
<clipPath id="clip0_1_15973">
<rect width="12" height="12" fill="white"/>
</clipPath>
</defs>
</symbol>

  <symbol viewBox="0 0 12 12" fill="none" xmlns="http://www.w3.org/2000/svg" id="telegram">
<g clip-path="url(#clip0_1_15976)">
<path d="M4.70847 7.59058L4.50997 10.3826C4.79397 10.3826 4.91697 10.2606 5.06447 10.1141L6.39597 8.84158L9.15497 10.8621C9.66097 11.1441 10.0175 10.9956 10.154 10.3966L11.965 1.91058L11.9655 1.91008C12.126 1.16208 11.695 0.869581 11.202 1.05308L0.556967 5.12858C-0.169533 5.41058 -0.158533 5.81558 0.433467 5.99908L3.15497 6.84558L9.47647 2.89008C9.77397 2.69308 10.0445 2.80208 9.82197 2.99908L4.70847 7.59058Z" fill="#5D6C7B"/>
</g>
<defs>
<clipPath id="clip0_1_15976">
<rect width="12" height="12" fill="white"/>
</clipPath>
</defs>
</symbol>


  <!-- Иконки для навбара (каталог, поиск, сравнение, лайк, корзина) -->
  <symbol id="catalog" viewBox="0 0 16 16">
    <rect y="2" width="16" height="2" rx="1" fill="currentColor"/>
    <rect y="7" width="16" height="2" rx="1" fill="currentColor"/>
    <rect y="12" width="16" height="2" rx="1" fill="currentColor"/>
  </symbol>
  <symbol id="search" viewBox="0 0 16 16">
    <circle cx="7.5" cy="7.5" r="6" fill="none" stroke="currentColor" stroke-width="1.5"/>
    <line x1="11.5" y1="11.5" x2="15" y2="15" stroke="currentColor" stroke-width="1.5" stroke-linecap="round"/>
  </symbol>
  <symbol  viewBox="0 0 20 20" fill="none" xmlns="http://www.w3.org/2000/svg" id="compare">
<mask id="path-1-inside-1_1_15994" fill="white">
<path d="M19.4141 11.2639H18.7766L16.7349 6.32553C17.0208 6.28663 17.2413 6.04217 17.2413 5.74561C17.2413 5.42202 16.979 5.15967 16.6554 5.15967H11.6177C11.3769 4.49088 10.7363 4.01135 9.98559 4.01135C9.23488 4.01135 8.59422 4.49092 8.3534 5.15967H3.34465C3.02105 5.15967 2.75871 5.42202 2.75871 5.74561C2.75871 6.04217 2.97926 6.28663 3.26512 6.32553L1.22344 11.2639H0.585938C0.262344 11.2639 0 11.5263 0 11.8499C0 14.132 1.85668 15.9887 4.13883 15.9887C6.42098 15.9887 8.27766 14.132 8.27766 11.8499C8.27766 11.5263 8.01531 11.2639 7.69172 11.2639H7.05418L5.01504 6.33155H8.3534C8.59422 7.00034 9.23484 7.47987 9.98559 7.47987C10.7363 7.47987 11.3769 7.00034 11.6177 6.33155H14.985L12.9459 11.2639H12.3083C11.9847 11.2639 11.7224 11.5263 11.7224 11.8499C11.7224 14.132 13.5791 15.9887 15.8612 15.9887C18.1434 15.9887 20 14.132 20 11.8499C20 11.5263 19.7377 11.2639 19.4141 11.2639ZM4.13883 14.8168C2.70332 14.8168 1.5027 13.7922 1.22996 12.4358H7.0477C6.77496 13.7922 5.57434 14.8168 4.13883 14.8168ZM5.78613 11.2639H2.49152L4.13883 7.2794L5.78613 11.2639ZM9.98555 6.30799C9.67543 6.30799 9.42316 6.05573 9.42316 5.74561C9.42316 5.43549 9.67543 5.18323 9.98555 5.18323C10.2956 5.18323 10.5479 5.43549 10.5479 5.74561C10.5479 6.05573 10.2957 6.30799 9.98555 6.30799ZM15.8612 7.2794L17.5085 11.2639H14.2139L15.8612 7.2794ZM15.8612 14.8168C14.4257 14.8168 13.225 13.7922 12.9523 12.4358H18.77C18.4973 13.7922 17.2966 14.8168 15.8612 14.8168Z"/>
</mask>
<path d="M19.4141 11.2639H18.7766L16.7349 6.32553C17.0208 6.28663 17.2413 6.04217 17.2413 5.74561C17.2413 5.42202 16.979 5.15967 16.6554 5.15967H11.6177C11.3769 4.49088 10.7363 4.01135 9.98559 4.01135C9.23488 4.01135 8.59422 4.49092 8.3534 5.15967H3.34465C3.02105 5.15967 2.75871 5.42202 2.75871 5.74561C2.75871 6.04217 2.97926 6.28663 3.26512 6.32553L1.22344 11.2639H0.585938C0.262344 11.2639 0 11.5263 0 11.8499C0 14.132 1.85668 15.9887 4.13883 15.9887C6.42098 15.9887 8.27766 14.132 8.27766 11.8499C8.27766 11.5263 8.01531 11.2639 7.69172 11.2639H7.05418L5.01504 6.33155H8.3534C8.59422 7.00034 9.23484 7.47987 9.98559 7.47987C10.7363 7.47987 11.3769 7.00034 11.6177 6.33155H14.985L12.9459 11.2639H12.3083C11.9847 11.2639 11.7224 11.5263 11.7224 11.8499C11.7224 14.132 13.5791 15.9887 15.8612 15.9887C18.1434 15.9887 20 14.132 20 11.8499C20 11.5263 19.7377 11.2639 19.4141 11.2639ZM4.13883 14.8168C2.70332 14.8168 1.5027 13.7922 1.22996 12.4358H7.0477C6.77496 13.7922 5.57434 14.8168 4.13883 14.8168ZM5.78613 11.2639H2.49152L4.13883 7.2794L5.78613 11.2639ZM9.98555 6.30799C9.67543 6.30799 9.42316 6.05573 9.42316 5.74561C9.42316 5.43549 9.67543 5.18323 9.98555 5.18323C10.2956 5.18323 10.5479 5.43549 10.5479 5.74561C10.5479 6.05573 10.2957 6.30799 9.98555 6.30799ZM15.8612 7.2794L17.5085 11.2639H14.2139L15.8612 7.2794ZM15.8612 14.8168C14.4257 14.8168 13.225 13.7922 12.9523 12.4358H18.77C18.4973 13.7922 17.2966 14.8168 15.8612 14.8168Z" fill="#282739"/>
<path d="M18.7766 11.2639L15.08 12.7922L16.1019 15.2639H18.7766V11.2639ZM16.7349 6.32553L16.1956 2.36206L11.0571 3.06133L13.0384 7.85377L16.7349 6.32553ZM11.6177 5.15967L7.85429 6.51483L8.80665 9.15967H11.6177V5.15967ZM8.3534 5.15967V9.15967H11.1644L12.1168 6.5149L8.3534 5.15967ZM3.26512 6.32553L6.96166 7.85379L8.94296 3.06142L3.80455 2.36207L3.26512 6.32553ZM1.22344 11.2639V15.2639H3.89809L4.91998 12.7922L1.22344 11.2639ZM7.05418 11.2639L3.35762 12.7922L4.3795 15.2639H7.05418V11.2639ZM5.01504 6.33155V2.33155H-0.966991L1.31848 7.85977L5.01504 6.33155ZM8.3534 6.33155L12.1168 4.97639L11.1645 2.33155H8.3534V6.33155ZM11.6177 6.33155V2.33155H8.80665L7.85429 4.97639L11.6177 6.33155ZM14.985 6.33155L18.6816 7.85977L20.967 2.33155H14.985V6.33155ZM12.9459 11.2639V15.2639H15.6205L16.6424 12.7922L12.9459 11.2639ZM1.22996 12.4358V8.43581H-3.65441L-2.69155 13.2243L1.22996 12.4358ZM7.0477 12.4358L10.9692 13.2243L11.9321 8.43581H7.0477V12.4358ZM5.78613 11.2639V15.2639H11.7682L9.48268 9.73569L5.78613 11.2639ZM2.49152 11.2639L-1.20502 9.73568L-3.49054 15.2639H2.49152V11.2639ZM4.13883 7.2794L7.83538 5.75115L4.13883 -3.19012L0.44228 5.75115L4.13883 7.2794ZM15.8612 7.2794L19.5577 5.75115L15.8612 -3.19012L12.1646 5.75115L15.8612 7.2794ZM17.5085 11.2639V15.2639H23.4905L21.205 9.73569L17.5085 11.2639ZM14.2139 11.2639L10.5173 9.73569L8.2318 15.2639H14.2139V11.2639ZM12.9523 12.4358V8.43581H8.06793L9.0308 13.2243L12.9523 12.4358ZM18.77 12.4358L22.6915 13.2243L23.6544 8.43581H18.77V12.4358ZM19.4141 7.26393H18.7766V15.2639H19.4141V7.26393ZM22.4731 9.7357L20.4315 4.7973L13.0384 7.85377L15.08 12.7922L22.4731 9.7357ZM17.2743 10.289C19.5083 9.98499 21.2413 8.07734 21.2413 5.74561H13.2413C13.2413 4.007 14.5334 2.58826 16.1956 2.36206L17.2743 10.289ZM21.2413 5.74561C21.2413 3.21288 19.1881 1.15967 16.6554 1.15967V9.15967C14.7698 9.15967 13.2413 7.63116 13.2413 5.74561H21.2413ZM16.6554 1.15967H11.6177V9.15967H16.6554V1.15967ZM15.3812 3.80451C14.5889 1.60414 12.4809 0.0113525 9.98559 0.0113525V8.01135C8.99163 8.01135 8.16497 7.37763 7.85429 6.51483L15.3812 3.80451ZM9.98559 0.0113525C7.49022 0.0113525 5.38231 1.60417 4.58997 3.80444L12.1168 6.5149C11.8061 7.37768 10.9795 8.01135 9.98559 8.01135V0.0113525ZM8.3534 1.15967H3.34465V9.15967H8.3534V1.15967ZM3.34465 1.15967C0.811916 1.15967 -1.24129 3.21288 -1.24129 5.74561H6.75871C6.75871 7.63116 5.23019 9.15967 3.34465 9.15967V1.15967ZM-1.24129 5.74561C-1.24129 8.07758 0.492035 9.98499 2.72568 10.289L3.80455 2.36207C5.46648 2.58827 6.75871 4.00677 6.75871 5.74561H-1.24129ZM-0.431425 4.79727L-2.4731 9.73567L4.91998 12.7922L6.96166 7.85379L-0.431425 4.79727ZM1.22344 7.26393H0.585938V15.2639H1.22344V7.26393ZM0.585938 7.26393C-1.9468 7.26393 -4 9.31713 -4 11.8499H4C4 13.7354 2.47148 15.2639 0.585938 15.2639V7.26393ZM-4 11.8499C-4 16.3412 -0.352459 19.9887 4.13883 19.9887V11.9887C4.11514 11.9887 4.10112 11.9847 4.08983 11.9799C4.07582 11.9739 4.05865 11.9633 4.04204 11.9467C4.02542 11.93 4.01476 11.9129 4.00882 11.8989C4.00404 11.8876 4 11.8736 4 11.8499H-4ZM4.13883 19.9887C8.63012 19.9887 12.2777 16.3412 12.2777 11.8499H4.27766C4.27766 11.8736 4.27362 11.8876 4.26883 11.8989C4.2629 11.9129 4.25223 11.93 4.23562 11.9467C4.21901 11.9633 4.20183 11.9739 4.18783 11.9799C4.17654 11.9847 4.16251 11.9887 4.13883 11.9887V19.9887ZM12.2777 11.8499C12.2777 9.31713 10.2245 7.26393 7.69172 7.26393V15.2639C5.80617 15.2639 4.27766 13.7354 4.27766 11.8499H12.2777ZM7.69172 7.26393H7.05418V15.2639H7.69172V7.26393ZM10.7507 9.7357L8.71159 4.80332L1.31848 7.85977L3.35762 12.7922L10.7507 9.7357ZM5.01504 10.3315H8.3534V2.33155H5.01504V10.3315ZM4.58995 7.68671C5.38229 9.88714 7.49024 11.4799 9.98559 11.4799V3.47987C10.9795 3.47987 11.8061 4.11354 12.1168 4.97639L4.58995 7.68671ZM9.98559 11.4799C12.4809 11.4799 14.5889 9.88709 15.3812 7.68671L7.85429 4.97639C8.16497 4.11359 8.99163 3.47987 9.98559 3.47987V11.4799ZM11.6177 10.3315H14.985V2.33155H11.6177V10.3315ZM11.2884 4.80332L9.2493 9.7357L16.6424 12.7922L18.6816 7.85977L11.2884 4.80332ZM12.9459 7.26393H12.3083V15.2639H12.9459V7.26393ZM12.3083 7.26393C9.77559 7.26393 7.72238 9.31713 7.72238 11.8499H15.7224C15.7224 13.7354 14.1939 15.2639 12.3083 15.2639V7.26393ZM7.72238 11.8499C7.72238 16.3412 11.3699 19.9887 15.8612 19.9887V11.9887C15.8375 11.9887 15.8235 11.9847 15.8122 11.9799C15.7982 11.9739 15.781 11.9633 15.7644 11.9467C15.7478 11.93 15.7371 11.9129 15.7312 11.8989C15.7264 11.8876 15.7224 11.8736 15.7224 11.8499H7.72238ZM15.8612 19.9887C20.3525 19.9887 24 16.3411 24 11.8499H16C16 11.8736 15.996 11.8876 15.9912 11.8989C15.9852 11.9129 15.9746 11.9301 15.958 11.9467C15.9414 11.9633 15.9242 11.9739 15.9102 11.9799C15.8989 11.9847 15.8849 11.9887 15.8612 11.9887V19.9887ZM24 11.8499C24 9.31713 21.9468 7.26393 19.4141 7.26393V15.2639C17.5285 15.2639 16 13.7354 16 11.8499H24ZM4.13883 10.8168C4.64856 10.8168 5.05659 11.1754 5.15147 11.6473L-2.69155 13.2243C-2.0512 16.4089 0.758084 18.8168 4.13883 18.8168V10.8168ZM1.22996 16.4358H7.0477V8.43581H1.22996V16.4358ZM3.12619 11.6473C3.22107 11.1754 3.6291 10.8168 4.13883 10.8168V18.8168C7.51957 18.8168 10.3289 16.4089 10.9692 13.2243L3.12619 11.6473ZM5.78613 7.26393H2.49152V15.2639H5.78613V7.26393ZM6.18807 12.7922L7.83538 8.80764L0.44228 5.75115L-1.20502 9.73568L6.18807 12.7922ZM0.44228 8.80764L2.08958 12.7922L9.48268 9.73569L7.83538 5.75115L0.44228 8.80764ZM9.98555 2.30799C11.8846 2.30799 13.4232 3.84659 13.4232 5.74561H5.42316C5.42316 8.26487 7.46629 10.308 9.98555 10.308V2.30799ZM13.4232 5.74561C13.4232 7.64463 11.8846 9.18323 9.98555 9.18323V1.18323C7.46629 1.18323 5.42316 3.22636 5.42316 5.74561H13.4232ZM9.98555 9.18323C8.08667 9.18323 6.54793 7.64481 6.54793 5.74561H14.5479C14.5479 3.22618 12.5046 1.18323 9.98555 1.18323V9.18323ZM6.54793 5.74561C6.54793 3.84659 8.08653 2.30799 9.98555 2.30799V10.308C12.5048 10.308 14.5479 8.26487 14.5479 5.74561H6.54793ZM12.1646 8.80764L13.8119 12.7922L21.205 9.73569L19.5577 5.75115L12.1646 8.80764ZM17.5085 7.26393H14.2139V15.2639H17.5085V7.26393ZM17.9104 12.7922L19.5577 8.80764L12.1646 5.75115L10.5173 9.73569L17.9104 12.7922ZM15.8612 10.8168C16.3709 10.8168 16.7789 11.1754 16.8738 11.6473L9.0308 13.2243C9.67114 16.4089 12.4804 18.8168 15.8612 18.8168V10.8168ZM12.9523 16.4358H18.77V8.43581H12.9523V16.4358ZM14.8485 11.6473C14.9434 11.1754 15.3514 10.8168 15.8612 10.8168V18.8168C19.2418 18.8168 22.0512 16.4089 22.6915 13.2243L14.8485 11.6473Z" fill="#282739" mask="url(#path-1-inside-1_1_15994)"/>
</symbol>

  <symbol viewBox="0 0 20 20" fill="none" xmlns="http://www.w3.org/2000/svg" id="like">
<path d="M17.9935 5.51496C17.7329 4.90541 17.357 4.35303 16.887 3.88876C16.4167 3.4231 15.8621 3.05305 15.2535 2.79873C14.6224 2.53397 13.9455 2.39845 13.2622 2.40004C12.3034 2.40004 11.3681 2.66518 10.5552 3.166C10.3607 3.28581 10.176 3.4174 10.001 3.56077C9.82594 3.4174 9.6412 3.28581 9.44673 3.166C8.63386 2.66518 7.69847 2.40004 6.73975 2.40004C6.0494 2.40004 5.38043 2.53359 4.74841 2.79873C4.13779 3.05405 3.58745 3.42132 3.11489 3.88876C2.64428 4.35251 2.26834 4.90501 2.00838 5.51496C1.73807 6.14934 1.6 6.823 1.6 7.51629C1.6 8.17031 1.73224 8.85182 1.99477 9.54512C2.21451 10.1245 2.52955 10.7255 2.9321 11.3324C3.56995 12.2928 4.44699 13.2944 5.536 14.3098C7.34066 15.993 9.1278 17.1557 9.20365 17.2028L9.66453 17.5013C9.86872 17.6329 10.1313 17.6329 10.3354 17.5013L10.7963 17.2028C10.8722 17.1537 12.6574 15.993 14.464 14.3098C15.553 13.2944 16.43 12.2928 17.0679 11.3324C17.4704 10.7255 17.7874 10.1245 18.0052 9.54512C18.2677 8.85182 18.4 8.17031 18.4 7.51629C18.4019 6.823 18.2639 6.14934 17.9935 5.51496ZM10.001 15.9478C10.001 15.9478 3.07795 11.4679 3.07795 7.51629C3.07795 5.51496 4.7173 3.89269 6.73975 3.89269C8.1613 3.89269 9.39422 4.69401 10.001 5.86456C10.6077 4.69401 11.8406 3.89269 13.2622 3.89269C15.2846 3.89269 16.924 5.51496 16.924 7.51629C16.924 11.4679 10.001 15.9478 10.001 15.9478Z" fill="#282739"/>
</symbol>

  <symbol viewBox="0 0 20 20" fill="none" xmlns="http://www.w3.org/2000/svg" id="cargo">
<g clip-path="url(#clip0_1_16000)">
<path d="M19.1523 7.25427H15.0031L12.6756 1.92486C12.5461 1.62833 12.2007 1.49282 11.9042 1.62239C11.6076 1.75189 11.4722 2.09732 11.6017 2.39388L13.7244 7.25431H6.27561L8.39827 2.39388C8.52776 2.09732 8.39237 1.75193 8.09581 1.62239C7.79929 1.49282 7.45382 1.62825 7.32436 1.92486L4.99686 7.25427H0.847685C0.304911 7.25427 -0.0979012 7.74564 0.0208488 8.26286L2.20581 17.7797C2.29257 18.1576 2.63608 18.4261 3.03265 18.4261H16.9673C17.3639 18.4261 17.7074 18.1576 17.7942 17.7797L19.9791 8.26286C20.0979 7.74568 19.695 7.25427 19.1523 7.25427ZM5.1071 9.0513C5.02882 9.0513 4.94925 9.03552 4.87288 9.00216C4.57632 8.87267 4.44089 8.52728 4.57042 8.23068L5.01057 7.22278H6.28933L5.64432 8.69966C5.54819 8.91993 5.33296 9.0513 5.1071 9.0513ZM7.0703 15.3011C7.0703 15.6247 6.80796 15.8871 6.48436 15.8871C6.16077 15.8871 5.89843 15.6247 5.89843 15.3011V11.0043C5.89843 10.6807 6.16077 10.4183 6.48436 10.4183C6.80796 10.4183 7.0703 10.6807 7.0703 11.0043V15.3011ZM10.5859 15.3011C10.5859 15.6247 10.3236 15.8871 9.99999 15.8871C9.6764 15.8871 9.41405 15.6247 9.41405 15.3011V11.0043C9.41405 10.6807 9.6764 10.4183 9.99999 10.4183C10.3236 10.4183 10.5859 10.6807 10.5859 11.0043V15.3011ZM14.1016 15.3011C14.1016 15.6247 13.8392 15.8871 13.5156 15.8871C13.192 15.8871 12.9297 15.6247 12.9297 15.3011V11.0043C12.9297 10.6807 13.192 10.4183 13.5156 10.4183C13.8392 10.4183 14.1016 10.6807 14.1016 11.0043V15.3011ZM15.1271 9.00216C15.0507 9.03552 14.9712 9.0513 14.8929 9.0513C14.667 9.0513 14.4518 8.91997 14.3556 8.6997L13.7106 7.22282H14.9894L15.4295 8.23071C15.5591 8.52728 15.4236 8.87267 15.1271 9.00216Z" fill="#6F73EE"/>
</g>
<defs>
<clipPath id="clip0_1_16000">
<rect width="20" height="20" fill="white"/>
</clipPath>
</defs>
</symbol>
<symbol viewBox="0 0 13 15" fill="none" xmlns="http://www.w3.org/2000/svg" id="location">
<path d="M10.7355 1.84193C9.54771 0.654143 7.96843 0 6.28872 0C4.60897 0 3.02975 0.654114 1.8419 1.84193C0.654143 3.02969 0 4.60886 0 6.2886C0 7.96834 0.654143 9.54757 1.8419 10.7354L5.97799 14.8713C6.0638 14.9571 6.17627 15 6.28872 15C6.40119 15 6.51366 14.9571 6.59944 14.8713L10.7354 10.7354C11.9232 9.5476 12.5773 7.96837 12.5773 6.28863C12.5773 4.60883 11.9232 3.02966 10.7355 1.84193ZM8.26369 8.26351C7.73616 8.79103 7.03479 9.08157 6.28875 9.08157C5.5427 9.08157 4.84133 8.79106 4.31384 8.26354C3.78628 7.73602 3.49578 7.03465 3.49578 6.2886C3.49578 5.54258 3.78628 4.84121 4.31384 4.31366C4.84133 3.78614 5.5427 3.49563 6.28875 3.49563C7.03479 3.49563 7.73616 3.78614 8.26369 4.31366C8.79121 4.84115 9.08175 5.54252 9.08175 6.28857C9.08172 7.03462 8.79118 7.73602 8.26369 8.26351Z" fill="white"/>
</symbol>
<symbol viewBox="0 0 16 16" fill="none" xmlns="http://www.w3.org/2000/svg" id="segway">
<g clip-path="url(#clip0_1_14920)">
<path d="M12.9407 10.8467L10.3157 1.86234L12.0813 1.67171C12.4469 1.63109 12.7125 1.30296 12.6719 0.937337C12.6313 0.571712 12.3063 0.302962 11.9375 0.346712L6.84067 0.896712C6.47505 0.937337 6.20942 1.26546 6.25005 1.63109C6.28755 1.97171 6.57505 2.22484 6.91255 2.22484C6.93755 2.22484 6.95942 2.22484 6.98442 2.22171L8.97192 2.00921L11.6469 11.1842C11.1188 11.4936 10.7219 11.9936 10.5469 12.5873H5.45317C5.15942 11.5842 4.22505 10.8467 3.11255 10.8467C1.76567 10.8467 0.675049 11.9248 0.675049 13.253C0.675049 14.5811 1.76567 15.6592 3.11255 15.6592C4.22505 15.6592 5.15942 14.9248 5.45317 13.9186H10.5438C10.8375 14.9217 11.7719 15.6592 12.8844 15.6592C14.2313 15.6592 15.3219 14.5811 15.3219 13.253C15.3219 11.9405 14.2625 10.8748 12.9407 10.8467Z" fill="white"/>
</g>
<defs>
<clipPath id="clip0_1_14920">
<rect width="16" height="16" fill="white"/>
</clipPath>
</defs>
</symbol>
<symbol viewBox="0 0 16 16" fill="none" xmlns="http://www.w3.org/2000/svg" id="lightning">
<path d="M12.1998 0H6.19959L3.80035 8.63849H6.20448L4.16032 16H4.88044L11.8393 7.36114H8.31397L12.1998 0Z" fill="white"/>
</symbol>
<symbol viewBox="0 0 22 22" fill="none" xmlns="http://www.w3.org/2000/svg" id="chek">
  <path d="M15.0168 7.58398H14.0092C13.79 7.58398 13.5816 7.68926 13.4527 7.86973L10.0754 12.5533L8.54566 10.4307C8.41676 10.2523 8.21051 10.1449 7.98922 10.1449H6.9816C6.84195 10.1449 6.76031 10.3039 6.84195 10.4178L9.51891 14.1303C9.58215 14.2185 9.66552 14.2905 9.7621 14.3401C9.85868 14.3897 9.9657 14.4156 10.0743 14.4156C10.1829 14.4156 10.2899 14.3897 10.3865 14.3401C10.483 14.2905 10.5664 14.2185 10.6297 14.1303L15.1543 7.85684C15.2381 7.74297 15.1564 7.58398 15.0168 7.58398V7.58398Z" fill="#6F73EE" />
  <path d="M11 1.375C5.68477 1.375 1.375 5.68477 1.375 11C1.375 16.3152 5.68477 20.625 11 20.625C16.3152 20.625 20.625 16.3152 20.625 11C20.625 5.68477 16.3152 1.375 11 1.375ZM11 18.9922C6.58711 18.9922 3.00781 15.4129 3.00781 11C3.00781 6.58711 6.58711 3.00781 11 3.00781C15.4129 3.00781 18.9922 6.58711 18.9922 11C18.9922 15.4129 15.4129 18.9922 11 18.9922Z" fill="#6F73EE" />
</symbol>
<symbol viewBox="0 0 18 18" fill="none" xmlns="http://www.w3.org/2000/svg" id="battery">
  <path d="M16.5 3.75001V2.99999C16.5 2.58655 16.1638 2.25 15.75 2.25H13.5C13.0862 2.25 12.75 2.58655 12.75 2.99999V3.74998H12.5303L12.2198 3.43944C11.9407 3.16002 11.554 2.99999 11.1592 2.99999H6.84081C6.44604 2.99999 6.05932 3.16002 5.78025 3.43944L5.46971 3.74998H5.24999V2.99999C5.24999 2.58655 4.91382 2.25 4.5 2.25H2.25C1.83618 2.25 1.50001 2.58655 1.50001 2.99999V3.74998C0.673102 3.75001 0 4.42273 0 5.24999V14.25C0 15.0773 0.673102 15.75 1.50001 15.75H16.5C17.3269 15.75 18 15.0773 18 14.25V5.24999C18 4.42273 17.3269 3.75001 16.5 3.75001ZM4.12499 7.49999H2.62501C2.41773 7.49999 2.25 7.33226 2.25 7.12498C2.25 6.91773 2.41773 6.75 2.62501 6.75H4.12502C4.3323 6.75 4.50004 6.91773 4.50004 7.12501C4.5 7.33229 4.33227 7.49999 4.12499 7.49999ZM15.375 7.49999H15V7.875C15 8.08228 14.8322 8.25001 14.625 8.25001C14.4177 8.25001 14.25 8.08228 14.25 7.875V7.49999H13.8749C13.6677 7.49999 13.4999 7.33226 13.4999 7.12498C13.4999 6.9177 13.6677 6.74996 13.8749 6.74996H14.25V6.37495C14.25 6.16767 14.4177 5.99994 14.625 5.99994C14.8322 5.99994 15 6.16767 15 6.37495V6.75H15.375C15.5823 6.75 15.75 6.91773 15.75 7.12501C15.75 7.33229 15.5823 7.49999 15.375 7.49999Z" fill="#5D6C7B" />
</symbol>
<symbol viewBox="0 0 18 18" fill="none" xmlns="http://www.w3.org/2000/svg" id="power">
  <path d="M14.2233 0.260732C14.14 0.101188 13.9749 0 13.7948 0H6.72925C6.51557 0 6.32727 0.141421 6.26614 0.346092L3.74218 8.80412C3.69851 8.95043 3.72654 9.10792 3.81776 9.23032C3.90898 9.35277 4.0527 9.42405 4.20529 9.42405H8.16696L6.57097 17.4212C6.52452 17.6538 6.65367 17.8862 6.87586 17.9691C6.93126 17.9898 6.98841 18 7.04477 18C7.21428 18 7.37679 17.9106 7.46487 17.7559L13.689 6.82597C13.7741 6.67634 13.7733 6.49172 13.6868 6.34287C13.6003 6.19402 13.4412 6.10147 13.269 6.10147H10.4664L14.1912 0.760267C14.2942 0.612563 14.3066 0.420397 14.2233 0.260732Z" fill="#5D6C7B" />
</symbol>
<symbol viewBox="0 0 18 18" fill="none" xmlns="http://www.w3.org/2000/svg" id="speed">
  <path d="M8.47256 4.5644V1.23605C6.43975 1.35274 4.53344 2.14266 3.01184 3.49874L5.36506 5.85196C6.25065 5.11474 7.32597 4.66917 8.47256 4.5644Z" fill="#5D6C7B" />
  <path d="M4.61919 6.59759L2.266 4.24442C0.908759 5.76559 0.117849 7.67203 0.000427246 9.70533H3.32892C3.43438 8.5585 3.88087 7.48311 4.61919 6.59759Z" fill="#5D6C7B" />
  <path d="M14.671 9.70533H17.9995C17.8821 7.67203 17.0912 5.76559 15.7339 4.24442L13.3807 6.59759C14.1191 7.48307 14.5655 8.5585 14.671 9.70533Z" fill="#5D6C7B" />
  <path d="M14.6704 10.76C14.4959 12.676 13.4442 13.845 13.0266 14.2625C12.8203 14.4688 12.8203 14.8033 13.0266 15.0096L14.6267 16.6097C14.7298 16.7128 14.865 16.7644 15.0002 16.7644C15.1354 16.7644 15.2705 16.7128 15.3737 16.6097C16.9531 15.0305 17.874 12.9698 18 10.76H14.6704Z" fill="#5D6C7B" />
  <path d="M3.27189 13.7858C3.41919 13.5544 3.64215 13.2058 3.90962 12.7933C3.63544 12.2499 3.40358 11.5724 3.32965 10.76H0C0.126035 12.9698 1.04695 15.0305 2.62628 16.6097C2.72943 16.7129 2.8646 16.7644 2.99978 16.7644C3.13495 16.7644 3.27016 16.7128 3.37331 16.6097L3.92119 16.0618C3.76249 15.9854 3.61607 15.8821 3.48785 15.754C2.95952 15.2256 2.87068 14.4163 3.27189 13.7858Z" fill="#5D6C7B" />
  <path d="M9.52734 1.23605V4.5644C10.6739 4.66917 11.7493 5.1147 12.6348 5.85196L14.9881 3.49874C13.4665 2.14263 11.5601 1.35274 9.52734 1.23605Z" fill="#5D6C7B" />
  <path d="M7.82841 9.06992C7.01222 9.8861 4.45108 13.8972 4.16175 14.352C4.02903 14.5605 4.05899 14.8332 4.23375 15.008C4.40851 15.1827 4.68122 15.2127 4.88976 15.08C5.34444 14.7906 9.35564 12.2295 10.1718 11.4133C10.8179 10.7673 10.8179 9.71602 10.1718 9.06995C9.52576 8.42389 8.47448 8.42385 7.82841 9.06992Z" fill="#5D6C7B" />
</symbol>
<symbol width="18" height="18" viewBox="0 0 18 18" fill="none" xmlns="http://www.w3.org/2000/svg" id="timer">
  <g clip-path="url(#clip0_5607_341)">
    <path d="M14.4526 5.35819L15.5303 4.28044L14.4698 3.21956L13.3169 4.3725C12.2636 3.62609 11.0346 3.16607 9.75007 3.0375V1.5H11.2501V0H6.75007V1.5H8.25007V3.0375C6.96557 3.16607 5.7365 3.62609 4.68325 4.3725L3.53031 3.21956L2.46982 4.28044L3.54757 5.35819C2.54155 6.42334 1.86955 7.75982 1.61454 9.20259C1.35953 10.6454 1.53269 12.1312 2.11264 13.4767C2.69258 14.8222 3.6539 15.9683 4.8779 16.7736C6.10189 17.5788 7.53493 18.008 9.00007 18.008C10.4652 18.008 11.8982 17.5788 13.1222 16.7736C14.3462 15.9683 15.3076 14.8222 15.8875 13.4767C16.4674 12.1312 16.6406 10.6454 16.3856 9.20259C16.1306 7.75982 15.4586 6.42334 14.4526 5.35819ZM9.00007 16.5C7.81338 16.5 6.65334 16.1481 5.66664 15.4888C4.67995 14.8295 3.91091 13.8925 3.45679 12.7961C3.00266 11.6997 2.88384 10.4933 3.11535 9.32946C3.34686 8.16557 3.91831 7.09647 4.75742 6.25736C5.59654 5.41824 6.66564 4.8468 7.82952 4.61529C8.99341 4.38378 10.1998 4.5026 11.2962 4.95672C12.3925 5.41085 13.3296 6.17988 13.9889 7.16658C14.6482 8.15327 15.0001 9.31331 15.0001 10.5C14.9983 12.0908 14.3656 13.6158 13.2407 14.7407C12.1159 15.8655 10.5908 16.4982 9.00007 16.5Z" fill="#5D6C7B" />
    <path d="M9 6.00015V10.5002H4.5C4.5 11.3902 4.76392 12.2602 5.25839 13.0002C5.75285 13.7402 6.45566 14.317 7.27792 14.6576C8.10019 14.9982 9.00499 15.0873 9.87791 14.9137C10.7508 14.7401 11.5526 14.3115 12.182 13.6821C12.8113 13.0528 13.2399 12.251 13.4135 11.3781C13.5872 10.5051 13.4981 9.60034 13.1575 8.77808C12.8169 7.95581 12.2401 7.25301 11.5001 6.75854C10.76 6.26407 9.89002 6.00015 9 6.00015Z" fill="#5D6C7B" />
  </g>
  <defs>
    <clipPath id="clip0_5607_341">
      <rect width="18" height="18" fill="white" />
    </clipPath>
  </defs>
</symbol>
<symbol viewBox="0 0 20 20" fill="none" xmlns="http://www.w3.org/2000/svg" id="cargolight">
<g clip-path="url(#clip0_3910_355)">
<path d="M11.9042 1.62234C12.2007 1.49293 12.5463 1.62863 12.6757 1.92508L14.7646 6.70731H18.6161C19.0428 6.70737 19.439 6.89762 19.7031 7.22879C19.9622 7.554 20.0581 7.97238 19.9658 8.37625L17.9081 17.3606C17.7645 17.988 17.2095 18.4261 16.5585 18.4261H3.44135C2.79037 18.4261 2.23537 17.988 2.09174 17.3606L0.0341187 8.37625C-0.0581856 7.97239 0.0376428 7.55399 0.296814 7.22879C0.560867 6.89759 0.957098 6.70738 1.38373 6.70731H5.23529L7.32416 1.92508C7.45362 1.62855 7.79917 1.49294 8.09564 1.62234C8.39209 1.75183 8.52762 2.09734 8.39838 2.39383L6.51459 6.70731H13.4853L11.6015 2.39383C11.4722 2.09734 11.6078 1.75179 11.9042 1.62234ZM1.38373 7.87918C1.29075 7.87927 1.23656 7.92944 1.21283 7.95926C1.18723 7.99134 1.16058 8.04508 1.1767 8.11551L3.23334 17.0989C3.25392 17.1888 3.34185 17.2542 3.44135 17.2542H16.5585C16.6579 17.2542 16.7458 17.1896 16.7665 17.0999L18.8232 8.11551C18.8393 8.04513 18.8126 7.99137 18.787 7.95926C18.7633 7.92943 18.7092 7.87924 18.6161 7.87918H15.2763L15.4296 8.23074C15.5592 8.52731 15.4235 8.87274 15.1269 9.00223C15.0506 9.03558 14.9708 9.05203 14.8925 9.05203C14.6669 9.0519 14.4516 8.92044 14.3554 8.70047L13.997 7.87918H6.00287L5.64447 8.70047C5.54828 8.92041 5.33303 9.05193 5.10736 9.05203C5.02904 9.05203 4.94931 9.03559 4.87299 9.00223C4.57645 8.87268 4.44077 8.52729 4.57025 8.23074L4.72357 7.87918H1.38373Z" fill="#6F73EE"/>
<path d="M11.9042 1.62234C12.2007 1.49293 12.5463 1.62863 12.6757 1.92508L14.7646 6.70731H18.6161C19.0428 6.70737 19.439 6.89762 19.7031 7.22879C19.9622 7.554 20.0581 7.97238 19.9658 8.37625L17.9081 17.3606C17.7645 17.988 17.2095 18.4261 16.5585 18.4261H3.44135C2.79037 18.4261 2.23537 17.988 2.09174 17.3606L0.0341187 8.37625C-0.0581856 7.97239 0.0376428 7.55399 0.296814 7.22879C0.560867 6.89759 0.957098 6.70738 1.38373 6.70731H5.23529L7.32416 1.92508C7.45362 1.62855 7.79917 1.49294 8.09564 1.62234C8.39209 1.75183 8.52762 2.09734 8.39838 2.39383L6.51459 6.70731H13.4853L11.6015 2.39383C11.4722 2.09734 11.6078 1.75179 11.9042 1.62234ZM1.38373 7.87918C1.29075 7.87927 1.23656 7.92944 1.21283 7.95926C1.18723 7.99134 1.16058 8.04508 1.1767 8.11551L3.23334 17.0989C3.25392 17.1888 3.34185 17.2542 3.44135 17.2542H16.5585C16.6579 17.2542 16.7458 17.1896 16.7665 17.0999L18.8232 8.11551C18.8393 8.04513 18.8126 7.99137 18.787 7.95926C18.7633 7.92943 18.7092 7.87924 18.6161 7.87918H15.2763L15.4296 8.23074C15.5592 8.52731 15.4235 8.87274 15.1269 9.00223C15.0506 9.03558 14.9708 9.05203 14.8925 9.05203C14.6669 9.0519 14.4516 8.92044 14.3554 8.70047L13.997 7.87918H6.00287L5.64447 8.70047C5.54828 8.92041 5.33303 9.05193 5.10736 9.05203C5.02904 9.05203 4.94931 9.03559 4.87299 9.00223C4.57645 8.87268 4.44077 8.52729 4.57025 8.23074L4.72357 7.87918H1.38373Z"/>
<path d="M6.48438 10.4188C6.80801 10.4188 7.07031 10.6812 7.07031 11.0048V15.3016C7.07031 15.6252 6.80797 15.8876 6.48438 15.8876C6.16078 15.8876 5.89844 15.6252 5.89844 15.3016V11.0048C5.89844 10.6812 6.16078 10.4188 6.48438 10.4188Z" fill="#6F73EE"/>
<path d="M6.48438 10.4188C6.80801 10.4188 7.07031 10.6812 7.07031 11.0048V15.3016C7.07031 15.6252 6.80797 15.8876 6.48438 15.8876C6.16078 15.8876 5.89844 15.6252 5.89844 15.3016V11.0048C5.89844 10.6812 6.16078 10.4188 6.48438 10.4188Z" />
<path d="M10 10.4188C10.3236 10.4188 10.5859 10.6812 10.5859 11.0048V15.3016C10.5859 15.6252 10.3236 15.8876 10 15.8876C9.67641 15.8876 9.41406 15.6252 9.41406 15.3016V11.0048C9.41406 10.6812 9.67641 10.4188 10 10.4188Z" fill="#6F73EE"/>
<path d="M10 10.4188C10.3236 10.4188 10.5859 10.6812 10.5859 11.0048V15.3016C10.5859 15.6252 10.3236 15.8876 10 15.8876C9.67641 15.8876 9.41406 15.6252 9.41406 15.3016V11.0048C9.41406 10.6812 9.67641 10.4188 10 10.4188Z" />
<path d="M13.5156 10.4188C13.8392 10.4188 14.1015 10.6812 14.1016 11.0048V15.3016C14.1016 15.6252 13.8392 15.8876 13.5156 15.8876C13.192 15.8876 12.9297 15.6252 12.9297 15.3016V11.0048C12.9297 10.6812 13.192 10.4188 13.5156 10.4188Z" fill="#6F73EE"/>
<path d="M13.5156 10.4188C13.8392 10.4188 14.1015 10.6812 14.1016 11.0048V15.3016C14.1016 15.6252 13.8392 15.8876 13.5156 15.8876C13.192 15.8876 12.9297 15.6252 12.9297 15.3016V11.0048C12.9297 10.6812 13.192 10.4188 13.5156 10.4188Z" />
</g>
<defs>
<clipPath id="clip0_3910_355">
<rect width="20" height="20" fill="white"/>
</clipPath>
</defs>
</symbol>

<symbol viewBox="0 0 20 20" fill="none" xmlns="http://www.w3.org/2000/svg" id="heart">
  <path d="M17.9935 5.51493C17.7329 4.90538 17.357 4.353 16.887 3.88873C16.4167 3.42307 15.8621 3.05302 15.2535 2.7987C14.6224 2.53394 13.9455 2.39842 13.2621 2.40001C12.3034 2.40001 11.368 2.66515 10.5552 3.16597C10.3607 3.28578 10.176 3.41737 10.0009 3.56074C9.82592 3.41737 9.64117 3.28578 9.44671 3.16597C8.63384 2.66515 7.69845 2.40001 6.73973 2.40001C6.04937 2.40001 5.38041 2.53356 4.74839 2.7987C4.13777 3.05402 3.58743 3.42129 3.11487 3.88873C2.64426 4.35248 2.26831 4.90498 2.00836 5.51493C1.73805 6.14931 1.59998 6.82296 1.59998 7.51626C1.59998 8.17028 1.73221 8.85179 1.99474 9.54509C2.21449 10.1245 2.52953 10.7255 2.93207 11.3323C3.56992 12.2927 4.44697 13.2944 5.53598 14.3098C7.34063 15.9929 9.12778 17.1556 9.20362 17.2028L9.66451 17.5013C9.8687 17.6329 10.1312 17.6329 10.3354 17.5013L10.7963 17.2028C10.8721 17.1537 12.6574 15.9929 14.4639 14.3098C15.553 13.2944 16.43 12.2927 17.0679 11.3323C17.4704 10.7255 17.7874 10.1245 18.0052 9.54509C18.2677 8.85179 18.4 8.17028 18.4 7.51626C18.4019 6.82296 18.2638 6.14931 17.9935 5.51493ZM10.0009 15.9478C10.0009 15.9478 3.07792 11.4679 3.07792 7.51626C3.07792 5.51493 4.71728 3.89266 6.73973 3.89266C8.16128 3.89266 9.3942 4.69397 10.0009 5.86453C10.6077 4.69397 11.8406 3.89266 13.2621 3.89266C15.2846 3.89266 16.924 5.51493 16.924 7.51626C16.924 11.4679 10.0009 15.9478 10.0009 15.9478Z" fill="#6F73EE" />
</symbol>
<symbol viewBox="0 0 152 45" fill="none" xmlns="http://www.w3.org/2000/svg" id="GooglePlay">
<g clip-path="url(#clip0_1_16009)">
<path d="M145.746 44.8881H5.82095C2.74259 44.8881 0.223938 42.3694 0.223938 39.291V5.70896C0.223938 2.6306 2.74259 0.111944 5.82095 0.111944H145.746C148.825 0.111944 151.343 2.6306 151.343 5.70896V39.291C151.343 42.3694 148.825 44.8881 145.746 44.8881Z" fill="white"/>
<path d="M119.928 33.694H122.017V19.7002H119.928V33.694ZM138.742 24.7411L136.348 30.8081H136.276L133.791 24.7411H131.541L135.268 33.2209L133.143 37.9377H135.322L141.065 24.7411H138.742ZM126.897 32.1046C126.212 32.1046 125.258 31.7626 125.258 30.9161C125.258 29.836 126.447 29.422 127.472 29.422C128.391 29.422 128.822 29.62 129.381 29.8903C129.218 31.1864 128.102 32.1046 126.897 32.1046V32.1046ZM127.149 24.4349C125.636 24.4349 124.07 25.1013 123.422 26.5776L125.276 27.3515C125.672 26.5776 126.41 26.3252 127.184 26.3252C128.265 26.3252 129.363 26.9737 129.381 28.1259V28.2698C129.002 28.0537 128.193 27.7298 127.202 27.7298C125.204 27.7298 123.169 28.8277 123.169 30.8802C123.169 32.7526 124.808 33.959 126.644 33.959C128.049 33.959 128.822 33.3289 129.309 32.5909H129.381V33.6709H131.397V28.3056C131.397 25.8215 129.543 24.4349 127.149 24.4349V24.4349ZM114.24 26.4446H111.269V21.6478H114.24C115.801 21.6478 116.688 22.9407 116.688 24.0461C116.688 25.1306 115.801 26.4446 114.24 26.4446ZM114.186 19.7002H109.181V33.694H111.269V28.3922H114.186C116.501 28.3922 118.777 26.7161 118.777 24.0461C118.777 21.3763 116.501 19.7002 114.186 19.7002ZM86.8937 32.1072C85.4507 32.1072 84.2425 30.899 84.2425 29.2396C84.2425 27.5627 85.4507 26.3362 86.8937 26.3362C88.3184 26.3362 89.4365 27.5627 89.4365 29.2396C89.4365 30.899 88.3184 32.1072 86.8937 32.1072V32.1072ZM89.2922 25.5246H89.22C88.7513 24.9657 87.8491 24.4608 86.7132 24.4608C84.3326 24.4608 82.1507 26.5526 82.1507 29.2396C82.1507 31.9087 84.3326 33.9826 86.7132 33.9826C87.8491 33.9826 88.7513 33.4776 89.22 32.9008H89.2922V33.586C89.2922 35.4077 88.3184 36.3815 86.7494 36.3815C85.4691 36.3815 84.6755 35.4615 84.3506 34.6862L82.5294 35.4436C83.0524 36.7059 84.4411 38.257 86.7494 38.257C89.202 38.257 91.276 36.8139 91.276 33.2974V24.7493H89.2922V25.5246ZM92.7185 33.694H94.8105V19.6997H92.7185V33.694ZM97.8944 29.0774C97.8403 27.2378 99.3191 26.3003 100.383 26.3003C101.213 26.3003 101.916 26.7148 102.15 27.3104L97.8944 29.0774ZM104.387 27.4905C103.99 26.4262 102.781 24.4608 100.311 24.4608C97.8582 24.4608 95.8205 26.3904 95.8205 29.2217C95.8205 31.8908 97.8403 33.9826 100.545 33.9826C102.728 33.9826 103.99 32.6481 104.513 31.8728L102.89 30.7905C102.349 31.5842 101.609 32.1072 100.545 32.1072C99.4813 32.1072 98.724 31.6201 98.2369 30.6646L104.603 28.0314L104.387 27.4905ZM53.6685 25.9216V27.9413H58.5015C58.3572 29.0774 57.9785 29.9069 57.4014 30.484C56.6983 31.1876 55.5981 31.9629 53.6685 31.9629C50.6928 31.9629 48.3666 29.5645 48.3666 26.5889C48.3666 23.6133 50.6928 21.2145 53.6685 21.2145C55.2736 21.2145 56.4455 21.8458 57.3113 22.6574L58.7359 21.2329C57.5277 20.0784 55.9225 19.1948 53.6685 19.1948C49.5926 19.1948 46.1663 22.5131 46.1663 26.5889C46.1663 30.6646 49.5926 33.9826 53.6685 33.9826C55.8688 33.9826 57.5278 33.2616 58.826 31.9087C60.1606 30.5742 60.5756 28.6987 60.5756 27.184C60.5756 26.7148 60.5396 26.2824 60.4671 25.9216H53.6685ZM66.0703 32.1072C64.6272 32.1072 63.3828 30.9169 63.3828 29.2217C63.3828 27.5085 64.6272 26.3362 66.0703 26.3362C67.5127 26.3362 68.7572 27.5085 68.7572 29.2217C68.7572 30.9169 67.5127 32.1072 66.0703 32.1072V32.1072ZM66.0703 24.4608C63.437 24.4608 61.2909 26.4625 61.2909 29.2217C61.2909 31.9629 63.437 33.9826 66.0703 33.9826C68.703 33.9826 70.8491 31.9629 70.8491 29.2217C70.8491 26.4625 68.703 24.4608 66.0703 24.4608ZM76.4955 32.1072C75.053 32.1072 73.8085 30.9169 73.8085 29.2217C73.8085 27.5085 75.053 26.3362 76.4955 26.3362C77.9381 26.3362 79.1825 27.5085 79.1825 29.2217C79.1825 30.9169 77.9381 32.1072 76.4955 32.1072ZM76.4955 24.4608C73.8623 24.4608 71.7166 26.4625 71.7166 29.2217C71.7166 31.9629 73.8623 33.9826 76.4955 33.9826C79.1283 33.9826 81.2744 31.9629 81.2744 29.2217C81.2744 26.4625 79.1283 24.4608 76.4955 24.4608Z" fill="#282739"/>
<path d="M11.9886 36.3688L11.9054 36.2892C11.5797 35.9445 11.3874 35.4093 11.3874 34.7163V34.8794V10.1227C11.3874 10.1205 11.3874 10.1188 11.3874 10.117C11.3874 10.1191 11.3874 10.1209 11.3874 10.1231V10.2867C11.3874 9.53624 11.6116 8.97094 11.9873 8.63199L25.8565 22.5008L11.9886 36.3688ZM11.3874 10.1156C11.3874 10.054 11.3891 9.99407 11.3922 9.93508C11.3891 9.99363 11.3874 10.054 11.3874 10.1156ZM11.3922 9.9324C11.3922 9.93161 11.3922 9.93072 11.3925 9.92982C11.3922 9.93072 11.3922 9.93161 11.3922 9.9324ZM11.3925 9.92456C11.3925 9.92411 11.3925 9.92367 11.3925 9.92322C11.3925 9.92367 11.3925 9.92411 11.3925 9.92456Z" fill="url(#paint0_linear_1_16009)"/>
<path d="M30.4788 27.2893L30.5842 27.2294L36.0614 24.1174C36.5836 23.8205 36.9316 23.4606 37.1052 23.0798C36.932 23.4606 36.5839 23.8209 36.0614 24.1178L30.5842 27.2299L30.4788 27.2893V27.2893ZM30.4801 27.1253L25.8564 22.5008L30.4797 17.8771L36.0614 21.0482C36.7702 21.4509 37.1681 21.97 37.2346 22.5004C37.2346 22.5008 37.2346 22.5017 37.2346 22.5025C37.1681 23.0317 36.7702 23.5512 36.0614 23.9538L30.4801 27.1253" fill="url(#paint1_linear_1_16009)"/>
<path d="M12.9773 36.897C12.5899 36.897 12.2518 36.771 11.9882 36.5332L11.9887 36.5327C12.2523 36.7706 12.5908 36.897 12.9782 36.897C13.0118 36.897 13.0459 36.8961 13.0805 36.8944C13.0455 36.8961 13.0109 36.897 12.9773 36.897V36.897ZM12.9778 36.733C12.5903 36.7334 12.2523 36.607 11.9887 36.3692V36.3688L25.8565 22.5009L30.4802 27.1254L14.2318 36.3574C13.7823 36.6123 13.3563 36.733 12.9778 36.733V36.733ZM11.9847 36.5301C11.9602 36.5079 11.9362 36.4842 11.9125 36.4597L11.9847 36.5301Z" fill="url(#paint2_linear_1_16009)"/>
<path d="M25.8565 22.5009L11.9873 8.63201C12.2509 8.39459 12.5885 8.26865 12.9755 8.26865C13.3551 8.26865 13.7814 8.38977 14.2318 8.64511L30.4797 17.8772L25.8565 22.5009V22.5009ZM30.5843 17.7727L14.2318 8.48168C13.7814 8.22623 13.3551 8.10511 12.9755 8.10511C12.9737 8.10511 12.9725 8.10511 12.9707 8.10511C12.9729 8.10511 12.9746 8.10511 12.9773 8.10511C13.356 8.10511 13.7818 8.22578 14.2318 8.48123L30.5843 17.7727V17.7727Z" fill="url(#paint3_linear_1_16009)"/>
<path d="M13.0804 36.8943C13.4324 36.8741 13.822 36.753 14.2317 36.5209L30.4788 27.2893L14.2317 36.5209C13.8224 36.7535 13.4324 36.8741 13.0804 36.8943V36.8943ZM11.9881 36.5331L11.9847 36.53C11.9859 36.5309 11.9872 36.5322 11.9881 36.5331ZM11.9124 36.4596L11.9054 36.4527V36.4522C11.9081 36.4548 11.9102 36.4574 11.9124 36.4596Z" fill="white"/>
<path d="M30.4788 27.2893L30.5843 27.2294L30.4788 27.2893Z" fill="url(#paint4_linear_1_16009)"/>
<path d="M12.9781 36.897C12.5907 36.897 12.2522 36.7706 11.9886 36.5327L11.9881 36.5332C11.9872 36.5323 11.9859 36.531 11.9847 36.5301L11.9124 36.4597C11.9102 36.4575 11.9081 36.4549 11.9054 36.4523L11.9886 36.3692C12.2522 36.607 12.5902 36.7334 12.9777 36.733C13.3563 36.733 13.7822 36.6123 14.2317 36.3574L30.4801 27.1254L30.5842 27.2295L30.4788 27.2894L14.2317 36.521C13.822 36.7531 13.4324 36.8742 13.0804 36.8944C13.0458 36.8961 13.0117 36.897 12.9781 36.897" fill="url(#paint5_linear_1_16009)"/>
<path d="M11.9054 36.4528C11.5797 36.1081 11.3874 35.5729 11.3874 34.8799V34.8794C11.3874 35.5729 11.5797 36.1076 11.9054 36.4523V36.4528" fill="white"/>
<path d="M11.9054 36.4524C11.5797 36.1077 11.3874 35.573 11.3874 34.8795V34.7164C11.3874 35.4094 11.5797 35.9446 11.9054 36.2893L11.9886 36.3689L11.9054 36.4524" fill="url(#paint6_linear_1_16009)"/>
<path d="M11.9054 36.4524L11.9886 36.3689V36.3692L11.9054 36.4524" fill="url(#paint7_linear_1_16009)"/>
<path d="M37.1052 23.0798C37.1913 22.8909 37.2346 22.6968 37.2346 22.5026C37.2346 22.5022 37.2346 22.5018 37.2346 22.5018C37.2346 22.6963 37.1913 22.8904 37.1052 23.0798Z" fill="white"/>
<path d="M30.5842 27.2294L30.4801 27.1253L36.0613 23.9538C36.7701 23.5511 37.1681 23.0316 37.2346 22.5025C37.2346 22.6967 37.1913 22.8908 37.1052 23.0797C36.9316 23.4606 36.5835 23.8205 36.0613 24.1173L30.5842 27.2294Z" fill="url(#paint8_linear_1_16009)"/>
<path d="M37.2346 22.5009V22.5004C37.2342 21.9148 36.8428 21.3294 36.0614 20.8851L30.5842 17.7731H30.5838L30.5842 17.7727L36.0614 20.8847C36.8437 21.329 37.2355 21.9153 37.2346 22.5009Z" fill="#282739"/>
<path d="M37.2346 22.5004C37.1681 21.97 36.7702 21.4509 36.0614 21.0482L30.4797 17.8771L30.5838 17.773H30.5842L36.0614 20.8851C36.8428 21.3294 37.2341 21.9148 37.2346 22.5004Z" fill="url(#paint9_linear_1_16009)"/>
<path d="M11.3874 10.1169C11.3874 10.1165 11.3874 10.116 11.3874 10.1156C11.3874 10.116 11.3874 10.1165 11.3874 10.1169ZM11.3922 9.93504C11.3922 9.93415 11.3922 9.93325 11.3922 9.93236C11.3922 9.93325 11.3922 9.93415 11.3922 9.93504ZM11.3925 9.92978C11.3925 9.92799 11.3925 9.92631 11.3925 9.92452C11.3925 9.92631 11.3925 9.92799 11.3925 9.92978ZM11.3925 9.92318C11.4574 8.77321 12.0827 8.10896 12.9672 8.10504C12.5837 8.10728 12.2497 8.23321 11.9882 8.46885V8.4684L11.985 8.47153C11.9575 8.49638 11.9313 8.52269 11.9054 8.54978C11.6116 8.86064 11.4262 9.32631 11.3925 9.92318Z" fill="#282739"/>
<path d="M11.3874 10.2867V10.1232C11.3874 10.121 11.3874 10.1192 11.3874 10.117C11.3874 10.1166 11.3874 10.1161 11.3874 10.1157C11.3874 10.054 11.3891 9.99368 11.3922 9.93514C11.3922 9.93424 11.3922 9.93335 11.3922 9.93245C11.3922 9.93167 11.3922 9.93077 11.3925 9.92988C11.3925 9.92809 11.3925 9.92641 11.3925 9.92462C11.3925 9.92417 11.3925 9.92372 11.3925 9.92327C11.4262 9.32641 11.6116 8.86073 11.9055 8.54988L11.9873 8.63204C11.6116 8.971 11.3874 9.53629 11.3874 10.2867V10.2867ZM11.985 8.47163L11.9882 8.4685C11.9873 8.46984 11.9859 8.47073 11.985 8.47163Z" fill="url(#paint10_linear_1_16009)"/>
<path d="M30.4797 17.8771L14.2317 8.64502C13.7813 8.38969 13.355 8.26857 12.9754 8.26857C12.5885 8.26857 12.2508 8.3945 11.9872 8.63193L11.9054 8.54976C11.9313 8.52267 11.9574 8.49636 11.985 8.47151C11.9859 8.47062 11.9872 8.46972 11.9881 8.46883C12.2496 8.23319 12.5836 8.10726 12.9671 8.10502C12.968 8.10502 12.9693 8.10502 12.9706 8.10502C12.9724 8.10502 12.9736 8.10502 12.9754 8.10502C13.355 8.10502 13.7813 8.22614 14.2317 8.48159L30.5842 17.7726L30.5838 17.773L30.4797 17.8771Z" fill="url(#paint11_linear_1_16009)"/>
<path d="M48.914 11.2688C48.9271 12.3313 48.7142 13.1883 48.2769 13.839H51.6722V8.77284H48.914V11.2688ZM47.3661 16.0896H46.541V13.839H47.1978C47.7793 13.3379 48.0635 12.4818 48.0518 11.2688V7.94773H52.5359V13.839H53.2859V16.0896H52.4603V14.6642H47.3661V16.0896" fill="#282739"/>
<path d="M48.914 11.2688L48.802 11.2701L48.8029 11.3606C48.8025 12.3659 48.5926 13.1687 48.1837 13.7765L48.0666 13.951H51.7841V8.6609H48.802V11.2697V11.2701L48.914 11.2688H49.0259V8.88478H51.5602V13.7271H48.2768V13.839L48.3696 13.9012C48.8099 13.2461 49.0268 12.396 49.0268 11.3606L49.0259 11.2674L48.914 11.2688H49.0259H48.914ZM47.3661 16.0896V15.9777H46.6529V13.951H47.1977H47.2392L47.2707 13.9239C47.8758 13.4018 48.1641 12.532 48.1641 11.3422L48.1636 11.2679V11.2688V8.05967H52.4239V13.951H53.1739V15.9777H52.5722V14.6641V14.5522H47.2541V16.0896H47.3661V15.9777V16.0896H47.478V14.7761H52.3483V16.0896V16.2015H53.2858H53.3978V13.7271H52.6478V7.83579H47.9398V11.2692V11.2697L47.9402 11.3422C47.9398 12.5006 47.659 13.2951 47.1246 13.7537L47.1977 13.839V13.7271H46.541H46.429V16.2015H47.3661H47.478V16.0896H47.3661" fill="#282739"/>
<path d="M55.7288 13.2338C56.2264 13.7371 56.8343 13.9885 57.5536 13.9885C58.2728 13.9885 58.8815 13.7371 59.3778 13.2338C59.8754 12.7305 60.1246 12.0872 60.1246 11.3059C60.1246 10.5245 59.8754 9.88121 59.3778 9.37793C58.8815 8.87465 58.2728 8.62323 57.5536 8.62323C56.8343 8.62323 56.2264 8.87465 55.7288 9.37793C55.2325 9.88121 54.9833 10.5245 54.9833 11.3059C54.9833 12.0872 55.2325 12.7305 55.7288 13.2338ZM60.0163 13.7961C59.3559 14.4751 58.5352 14.8141 57.5536 14.8141C56.5719 14.8141 55.7507 14.4751 55.0917 13.7961C54.4314 13.1179 54.1022 12.2876 54.1022 11.3059C54.1022 10.3242 54.4314 9.49379 55.0917 8.81565C55.7507 8.13651 56.5719 7.79722 57.5536 7.79722C58.5295 7.79722 59.3485 8.1383 60.0118 8.82002C60.6742 9.50173 61.0057 10.3303 61.0057 11.3059C61.0057 12.2876 60.6756 13.1179 60.0163 13.7961Z" fill="#282739"/>
<path d="M55.7288 13.2339L55.6492 13.3126C56.1647 13.8361 56.8079 14.1019 57.5535 14.1006C58.2986 14.1019 58.9431 13.8361 59.4573 13.3126C59.9764 12.7888 60.2374 12.111 60.2365 11.306C60.2374 10.501 59.9764 9.82324 59.4573 9.29936C58.9431 8.77592 58.2986 8.51006 57.5535 8.51141C56.8079 8.51006 56.1647 8.77592 55.6492 9.29936C55.1315 9.82324 54.8704 10.501 54.8713 11.306C54.8704 12.111 55.1315 12.7888 55.6492 13.3126L55.7288 13.2339L55.8088 13.1552C55.3339 12.672 55.0964 12.0642 55.0952 11.306C55.0964 10.5478 55.3339 9.93999 55.8088 9.45674H55.8084C56.2876 8.97361 56.8599 8.73663 57.5535 8.73529C58.2465 8.73663 58.8202 8.97361 59.2981 9.45674L59.2999 9.45853L59.2981 9.45674C59.7743 9.93999 60.0114 10.5478 60.0126 11.306C60.0114 12.0642 59.7743 12.672 59.2981 13.1552C58.8202 13.6384 58.2465 13.8754 57.5535 13.8767C56.8599 13.8754 56.2876 13.6384 55.8084 13.1552L55.7288 13.2339ZM60.0162 13.7962L59.9362 13.7184C59.2946 14.3761 58.5094 14.7009 57.5535 14.7023C56.5972 14.7009 55.8123 14.3761 55.1717 13.7184C54.5315 13.0585 54.2153 12.2628 54.2141 11.306C54.2153 10.3492 54.5315 9.55346 55.1717 8.89357C55.8123 8.23592 56.5972 7.91062 57.5535 7.90928C58.5037 7.91062 59.2868 8.23727 59.9318 8.89839C60.5746 9.5613 60.8925 10.3558 60.8937 11.306C60.8925 12.2628 60.5755 13.0585 59.9362 13.7184L60.0162 13.7962L60.0966 13.874C60.7753 13.1771 61.1185 12.3126 61.1176 11.306C61.1185 10.3051 60.7744 9.44241 60.0922 8.74234C59.41 8.03958 58.5557 7.68417 57.5535 7.6854C56.5461 7.68417 55.6889 8.0379 55.0112 8.73797V8.73753C54.3312 9.43491 53.9893 10.2994 53.9902 11.306C53.9893 12.3126 54.3312 13.1771 55.0112 13.8745V13.874C55.6889 14.5741 56.5461 14.927 57.5535 14.9261C58.5605 14.927 59.4175 14.5741 60.0966 13.874L60.0162 13.7962Z" fill="#282739"/>
<path d="M65.3501 14.8141C64.3619 14.8141 63.5333 14.4796 62.8642 13.8101C62.1939 13.1411 61.8607 12.3063 61.8607 11.3059C61.8607 10.3054 62.1939 9.47062 62.8642 8.80166C63.5333 8.13214 64.3619 7.79722 65.3501 7.79722C66.3623 7.79722 67.1853 8.16326 67.8171 8.89479L67.2159 9.47677C66.7603 8.90744 66.1371 8.62323 65.3501 8.62323C64.6176 8.62323 63.9997 8.87028 63.4969 9.36438C62.9932 9.85849 62.7417 10.5057 62.7417 11.3059C62.7417 12.106 62.9932 12.7537 63.4969 13.2474C63.9997 13.7415 64.6176 13.9885 65.3501 13.9885C66.1568 13.9885 66.8442 13.6636 67.4139 13.0134L68.0139 13.6133C67.707 13.9824 67.323 14.2749 66.8595 14.49C66.3973 14.7061 65.8932 14.8141 65.3501 14.8141" fill="#282739"/>
<path d="M65.35 14.8142V14.7023C64.3868 14.7009 63.5931 14.3795 62.9433 13.7311C62.2939 13.0817 61.9734 12.2816 61.9725 11.306C61.9734 10.3304 62.2939 9.53029 62.9433 8.88092C63.5931 8.23201 64.3868 7.91063 65.35 7.90928C66.3356 7.91107 67.1192 8.25999 67.7322 8.9679L67.8171 8.89492L67.7393 8.81443L67.138 9.39686L67.2158 9.47689L67.3033 9.40693C66.8284 8.81141 66.1634 8.50973 65.35 8.51141C64.5922 8.51051 63.9402 8.77078 63.4186 9.28447C62.8917 9.80007 62.6284 10.483 62.6297 11.306C62.6284 12.129 62.8917 12.8128 63.4186 13.3275C63.9402 13.8412 64.5922 14.1015 65.35 14.1006C66.1873 14.1019 66.9128 13.7582 67.4978 13.0874L67.4138 13.0135L67.3347 13.0927L67.9347 13.6926L68.0139 13.6134L67.9277 13.5422C67.6312 13.8981 67.2622 14.1797 66.8122 14.3887C66.3649 14.5977 65.8787 14.7018 65.35 14.7023V14.8142V14.9261C65.9079 14.9261 66.4292 14.8151 66.9066 14.5917C67.3842 14.3704 67.7821 14.0673 68.0999 13.6852L68.1651 13.6069L67.4931 12.9344L67.4083 12.8495L67.3296 12.9397C66.7759 13.5698 66.1262 13.8754 65.35 13.8767C64.6425 13.8754 64.0597 13.6419 63.5755 13.1675H63.5752C63.0942 12.6952 62.8545 12.0834 62.8536 11.306C62.8545 10.5286 63.0942 9.91771 63.5752 9.44454H63.5755C64.0597 8.97014 64.6425 8.73663 65.35 8.73529C66.1104 8.73708 66.6915 9.00383 67.1284 9.54686L67.2053 9.64312L67.8949 8.9754L67.971 8.90186L67.9019 8.82193C67.2517 8.06633 66.3889 7.68417 65.35 7.6854C64.3364 7.68451 63.4728 8.03309 62.785 8.72264C62.0937 9.41085 61.7473 10.2811 61.7487 11.306C61.7473 12.3309 62.0937 13.2011 62.785 13.8898C63.4728 14.5789 64.3364 14.927 65.35 14.9261V14.8142" fill="#282739"/>
<path d="M71.5045 14.6642H70.641V8.77288H68.7651V7.94776H73.3804V8.77288H71.5045V14.6642Z" fill="#282739"/>
<path d="M71.5045 14.6642V14.5522H70.7529V8.66094H68.877V8.0597H73.2684V8.66094H71.3925V14.6642H71.5045V14.5522V14.6642H71.6164V8.88482H73.4923V7.94776V7.83582H68.6531V8.77288V8.88482H70.529V14.7761H71.5045H71.6164V14.6642H71.5045" fill="#282739"/>
<path d="M75.2549 12.0371H77.4868L76.3892 9.00773H76.352L75.2549 12.0371ZM73.3507 14.6642L75.8838 7.94776H76.8585L79.3911 14.6642H78.4348L77.7871 12.8438H74.9642L74.3075 14.6642H73.3507Z" fill="#282739"/>
<path d="M75.2549 12.0371V12.149H77.6464L76.4675 8.89579H76.3521H76.2734L75.0954 12.149H75.2549V12.0371L75.3604 12.0756L76.4575 9.04579L76.3521 9.00773V9.11967H76.3892V9.00773L76.2839 9.04579L77.3272 11.9251H75.2549V12.0371L75.3604 12.0756L75.2549 12.0371ZM73.3507 14.6642L73.4556 14.7036L75.9612 8.0597H76.7806L79.2293 14.5522H78.5135L77.8663 12.7319H74.8855L74.2287 14.5522H73.3507V14.6642L73.4556 14.7036L73.3507 14.6642V14.7761H74.3075H74.3862L75.0429 12.9558H77.7084L78.3557 14.7761H79.3911H79.5529L76.9358 7.83582H75.8838H75.8063L73.1888 14.7761H73.3507V14.6642" fill="#282739"/>
<path d="M80.3671 14.6642V7.94776H85.2264V14.6642H84.3629V8.77288H81.2298V14.6642H80.3671Z" fill="#282739"/>
<path d="M80.367 14.6642H80.4789V8.0597H85.1144V14.5522H84.4748V8.66094H81.1178V14.5522H80.367V14.6642H80.4789H80.367V14.7761H81.2297H81.3417V8.88482H84.2509V14.7761H85.2263H85.3383V7.83582H80.2551V14.7761H80.367V14.6642" fill="#282739"/>
<path d="M86.7656 14.6642V7.94776H87.6284V10.8272H90.9866V7.94776H91.8497V14.6642H90.9866V11.634H87.6284V14.6642H86.7656Z" fill="#282739"/>
<path d="M86.7655 14.6642H86.8774V8.0597H87.5164L87.516 10.9391H91.0985V8.0597H91.7377V14.5522H91.0981L91.0985 11.522H87.516V14.5522H86.7655V14.6642H86.8774H86.7655V14.7761H87.6283H87.7403V11.7459H90.8742V14.7761H91.8496H91.9616V7.83582H90.9866H90.8742V10.7153H87.7398L87.7403 7.83582H86.7655H86.6536V14.7761H86.7655V14.6642Z" fill="#282739"/>
<path d="M94.5925 13.2338C95.0902 13.7371 95.6975 13.9885 96.4168 13.9885C97.1366 13.9885 97.7452 13.7371 98.2416 13.2338C98.7387 12.7305 98.9885 12.0872 98.9885 11.3059C98.9885 10.5245 98.7387 9.88121 98.2416 9.37793C97.7452 8.87465 97.1366 8.62323 96.4168 8.62323C95.6975 8.62323 95.0902 8.87465 94.5925 9.37793C94.0963 9.88121 93.847 10.5245 93.847 11.3059C93.847 12.0872 94.0963 12.7305 94.5925 13.2338ZM98.88 13.7961C98.2198 14.4751 97.399 14.8141 96.4168 14.8141C95.4357 14.8141 94.6145 14.4751 93.9555 13.7961C93.2953 13.1179 92.9659 12.2876 92.9659 11.3059C92.9659 10.3242 93.2953 9.49379 93.9555 8.81565C94.6145 8.13651 95.4357 7.79722 96.4168 7.79722C97.3933 7.79722 98.2118 8.1383 98.8756 8.82002C99.5381 9.50173 99.8695 10.3303 99.8695 11.3059C99.8695 12.2876 99.5394 13.1179 98.88 13.7961Z" fill="#282739"/>
<path d="M94.5926 13.2339L94.513 13.3126C95.0286 13.8361 95.6718 14.1019 96.4169 14.1006C97.1624 14.1019 97.8065 13.8361 98.3212 13.3126C98.8403 12.7888 99.1013 12.111 99.1005 11.306C99.1013 10.501 98.8403 9.82324 98.3212 9.29936C97.8065 8.77592 97.1624 8.51006 96.4169 8.51141C95.6718 8.51006 95.0286 8.77592 94.513 9.29936C93.9953 9.82324 93.7343 10.501 93.7352 11.306C93.7343 12.111 93.9953 12.7888 94.513 13.3126L94.5926 13.2339L94.6722 13.1552C94.1974 12.672 93.9599 12.0642 93.959 11.306C93.9599 10.5478 94.1974 9.93999 94.6722 9.45674C95.1515 8.97361 95.7239 8.73663 96.4169 8.73529C97.1105 8.73663 97.6842 8.97361 98.1621 9.45674L98.1651 9.46032L98.1621 9.45674C98.6378 9.93999 98.8752 10.5478 98.8766 11.306C98.8752 12.0642 98.6378 12.672 98.1621 13.1552C97.6842 13.6384 97.1105 13.8754 96.4169 13.8767C95.7239 13.8754 95.1515 13.6384 94.6722 13.1552L94.5926 13.2339ZM98.88 13.7962L98.7996 13.7184C98.1581 14.3761 97.3732 14.7009 96.4169 14.7023C95.461 14.7009 94.6761 14.3761 94.0356 13.7184L94.0325 13.715L94.0356 13.7184C93.395 13.0585 93.0788 12.2628 93.0779 11.306C93.0788 10.3492 93.395 9.55346 94.0356 8.89357C94.6761 8.23592 95.461 7.91062 96.4169 7.90928C97.3672 7.91062 98.1503 8.23727 98.7956 8.89839C99.4384 9.5613 99.7563 10.3558 99.7577 11.306C99.7563 12.2628 99.4393 13.0585 98.7996 13.7184L98.88 13.7962L98.9605 13.874C99.6391 13.1771 99.9824 12.3126 99.9815 11.306C99.9824 10.3051 99.6379 9.44241 98.9562 8.74234C98.274 8.03958 97.4191 7.68417 96.4169 7.6854C95.4099 7.68417 94.5529 8.0379 93.8751 8.73797V8.73753C93.1952 9.43491 92.8532 10.2994 92.8541 11.306C92.8532 12.3126 93.1952 13.1771 93.8751 13.8745V13.874C94.5529 14.5741 95.4099 14.927 96.4169 14.9261C97.4244 14.927 98.2814 14.5741 98.9605 13.874L98.88 13.7962" fill="#282739"/>
<path d="M103.398 14.6642V7.94776H104.26V10.8272H107.618V7.94776H108.483V14.6642H107.618V11.634H104.26V14.6642H103.398Z" fill="#282739"/>
<path d="M103.398 14.6642H103.51V8.0597H104.148V10.9391H107.73V8.0597H108.371V14.5522H107.73V11.522H104.148V14.5522H103.398V14.6642H103.51H103.398V14.7761H104.26H104.372V11.7459H107.506V14.7761H108.483H108.594V7.83582H107.618H107.506V10.7153H104.372V7.83582H103.398H103.286V14.7761H103.398V14.6642Z" fill="#282739"/>
<path d="M111.362 12.0371H113.594L112.497 9.00773H112.46L111.362 12.0371ZM109.458 14.6642L111.991 7.94776H112.966L115.499 14.6642H114.542L113.895 12.8438H111.071L110.415 14.6642H109.458Z" fill="#282739"/>
<path d="M111.362 12.0371V12.149H113.754L112.575 8.89579H112.46H112.381L111.203 12.149H111.362V12.0371L111.467 12.0756L112.565 9.04579L112.46 9.00773V9.11967H112.497V9.00773L112.391 9.04579L113.435 11.9251H111.362V12.0371L111.467 12.0756L111.362 12.0371ZM109.457 14.6642L109.563 14.7036L112.068 8.0597H112.888L115.337 14.5522H114.621L113.973 12.7319H110.992L110.335 14.5522H109.457V14.6642L109.563 14.7036L109.457 14.6642V14.7761H110.415H110.493L111.15 12.9558H113.815L114.462 14.7761H115.499H115.66L113.043 7.83582H111.991H111.913L109.295 14.7761H109.457V14.6642" fill="#282739"/>
</g>
<defs>
<linearGradient id="paint0_linear_1_16009" x1="24.6267" y1="9.86154" x2="5.84031" y2="28.6479" gradientUnits="userSpaceOnUse">
<stop stop-color="#00A0FF"/>
<stop offset="0.00657445" stop-color="#00A1FF"/>
<stop offset="0.2601" stop-color="#00BEFF"/>
<stop offset="0.5122" stop-color="#00D2FF"/>
<stop offset="0.7604" stop-color="#00DFFF"/>
<stop offset="1" stop-color="#00E3FF"/>
</linearGradient>
<linearGradient id="paint1_linear_1_16009" x1="38.0982" y1="22.5015" x2="11.012" y2="22.5015" gradientUnits="userSpaceOnUse">
<stop stop-color="#FFE000"/>
<stop offset="0.4087" stop-color="#FFBD00"/>
<stop offset="0.7754" stop-color="#FFA500"/>
<stop offset="1" stop-color="#FF9C00"/>
</linearGradient>
<linearGradient id="paint2_linear_1_16009" x1="28.0154" y1="25.0703" x2="2.53966" y2="50.546" gradientUnits="userSpaceOnUse">
<stop stop-color="#FF3A44"/>
<stop offset="1" stop-color="#C31162"/>
</linearGradient>
<linearGradient id="paint3_linear_1_16009" x1="8.39257" y1="0.30914" x2="19.7685" y2="11.6851" gradientUnits="userSpaceOnUse">
<stop stop-color="#32A071"/>
<stop offset="0.0685" stop-color="#2DA771"/>
<stop offset="0.4762" stop-color="#15CF74"/>
<stop offset="0.8009" stop-color="#06E775"/>
<stop offset="1" stop-color="#00F076"/>
</linearGradient>
<linearGradient id="paint4_linear_1_16009" x1="38.0983" y1="22.5017" x2="11.012" y2="22.5017" gradientUnits="userSpaceOnUse">
<stop stop-color="#CCB300"/>
<stop offset="0.4087" stop-color="#CC9700"/>
<stop offset="0.7754" stop-color="#CC8400"/>
<stop offset="1" stop-color="#CC7D00"/>
</linearGradient>
<linearGradient id="paint5_linear_1_16009" x1="28.0153" y1="25.0703" x2="2.53957" y2="50.546" gradientUnits="userSpaceOnUse">
<stop stop-color="#CC2E36"/>
<stop offset="1" stop-color="#9C0E4E"/>
</linearGradient>
<linearGradient id="paint6_linear_1_16009" x1="24.6267" y1="9.86165" x2="5.84033" y2="28.6481" gradientUnits="userSpaceOnUse">
<stop stop-color="#008DE0"/>
<stop offset="0.00657445" stop-color="#008DE0"/>
<stop offset="0.2601" stop-color="#00A7E0"/>
<stop offset="0.5122" stop-color="#00B8E0"/>
<stop offset="0.7604" stop-color="#00C4E0"/>
<stop offset="1" stop-color="#00C7E0"/>
</linearGradient>
<linearGradient id="paint7_linear_1_16009" x1="28.0158" y1="25.0705" x2="2.5404" y2="50.547" gradientUnits="userSpaceOnUse">
<stop stop-color="#E0333C"/>
<stop offset="1" stop-color="#AB0F56"/>
</linearGradient>
<linearGradient id="paint8_linear_1_16009" x1="38.0982" y1="22.5015" x2="11.012" y2="22.5015" gradientUnits="userSpaceOnUse">
<stop stop-color="#E0C500"/>
<stop offset="0.4087" stop-color="#E0A600"/>
<stop offset="0.7754" stop-color="#E09100"/>
<stop offset="1" stop-color="#E08900"/>
</linearGradient>
<linearGradient id="paint9_linear_1_16009" x1="38.0982" y1="22.5015" x2="11.012" y2="22.5015" gradientUnits="userSpaceOnUse">
<stop stop-color="#FFE840"/>
<stop offset="0.4087" stop-color="#FFCE40"/>
<stop offset="0.7754" stop-color="#FFBC40"/>
<stop offset="1" stop-color="#FFB540"/>
</linearGradient>
<linearGradient id="paint10_linear_1_16009" x1="24.6267" y1="9.86159" x2="5.84032" y2="28.648" gradientUnits="userSpaceOnUse">
<stop stop-color="#40B8FF"/>
<stop offset="0.00657445" stop-color="#40B9FF"/>
<stop offset="0.2601" stop-color="#40CEFF"/>
<stop offset="0.5122" stop-color="#40DDFF"/>
<stop offset="0.7604" stop-color="#40E7FF"/>
<stop offset="1" stop-color="#40EAFF"/>
</linearGradient>
<linearGradient id="paint11_linear_1_16009" x1="8.39248" y1="0.309051" x2="19.7684" y2="11.685" gradientUnits="userSpaceOnUse">
<stop stop-color="#65B895"/>
<stop offset="0.0685" stop-color="#62BD95"/>
<stop offset="0.4762" stop-color="#50DB97"/>
<stop offset="0.8009" stop-color="#44ED98"/>
<stop offset="1" stop-color="#40F498"/>
</linearGradient>
<clipPath id="clip0_1_16009">
<rect width="151.455" height="45" fill="white"/>
</clipPath>
</defs>
</symbol>
<symbol viewBox="0 0 135 45" fill="none" xmlns="http://www.w3.org/2000/svg" id="AppStore">
<g clip-path="url(#clip0_1_16010)">
<path d="M123.902 0.00014625H10.7265C10.314 0.00014625 9.90639 0.00014625 9.49494 0.00239625C9.15052 0.00464625 8.80885 0.0111825 8.46112 0.0166837C7.7057 0.0255733 6.95206 0.092032 6.20674 0.215483C5.46246 0.34162 4.74151 0.579426 4.06825 0.920857C3.39581 1.26518 2.78139 1.71258 2.24727 2.24685C1.71034 2.77961 1.26277 3.39541 0.921769 4.07058C0.579825 4.74439 0.342721 5.46645 0.218644 6.21181C0.0933873 6.95623 0.0259857 7.70923 0.0170438 8.46406C0.00660375 8.80899 0.00550125 9.15506 0 9.50003V35.5036C0.00550125 35.8529 0.00660375 36.1913 0.0170438 36.5407C0.0259884 37.2955 0.0933901 38.0485 0.218644 38.7928C0.342378 39.5386 0.579497 40.2611 0.921769 40.9352C1.26262 41.6082 1.71025 42.2215 2.24727 42.7513C2.77936 43.2879 3.39418 43.7356 4.06825 44.0773C4.7415 44.4197 5.46238 44.6589 6.20674 44.787C6.95218 44.9094 7.70575 44.9759 8.46112 44.9859C8.80885 44.9935 9.15052 44.9979 9.49494 44.9979C9.90638 45.0001 10.314 45.0001 10.7265 45.0001H123.902C124.306 45.0001 124.717 45.0001 125.121 44.9979C125.464 44.9979 125.815 44.9935 126.158 44.9859C126.912 44.9764 127.664 44.9099 128.408 44.787C129.155 44.658 129.878 44.4188 130.555 44.0773C131.228 43.7354 131.843 43.2877 132.374 42.7513C132.91 42.2194 133.359 41.6065 133.704 40.9352C134.043 40.2606 134.278 39.5382 134.4 38.7928C134.526 38.0484 134.595 37.2956 134.609 36.5407C134.613 36.1913 134.613 35.8529 134.613 35.5036C134.622 35.0949 134.622 34.6884 134.622 34.273V10.7283C134.622 10.3163 134.622 9.90762 134.613 9.50003C134.613 9.15506 134.613 8.80899 134.609 8.46402C134.595 7.70912 134.526 6.95629 134.4 6.21177C134.278 5.46684 134.043 4.74484 133.704 4.07053C133.009 2.71724 131.908 1.61567 130.555 0.920756C129.878 0.58016 129.155 0.342417 128.408 0.215381C127.664 0.0913869 126.912 0.024905 126.158 0.0165262C125.815 0.0110362 125.464 0.00444375 125.121 0.00225C124.717 0 124.306 0 123.902 0V0.00014625Z" fill="white"/>
<path d="M28.1213 22.375C28.1339 21.3986 28.3932 20.4412 28.8753 19.5919C29.3573 18.7426 30.0463 18.0291 30.8782 17.5176C30.3497 16.7629 29.6525 16.1417 28.842 15.7035C28.0315 15.2654 27.1299 15.0222 26.209 14.9934C24.2445 14.7872 22.34 16.1689 21.3389 16.1689C20.3184 16.1689 18.7771 15.0139 17.1174 15.048C16.0438 15.0827 14.9975 15.3949 14.0805 15.9542C13.1634 16.5134 12.4069 17.3007 11.8846 18.2393C9.62207 22.1566 11.3097 27.9136 13.477 31.0801C14.5614 32.6306 15.8287 34.3625 17.4869 34.3011C19.1096 34.2338 19.7157 33.2664 21.6744 33.2664C23.615 33.2664 24.1836 34.3011 25.8755 34.262C27.6167 34.2338 28.7138 32.7047 29.7601 31.1395C30.5392 30.0347 31.1387 28.8136 31.5365 27.5216C30.5249 27.0937 29.6616 26.3775 29.0543 25.4623C28.4469 24.5471 28.1225 23.4734 28.1213 22.375Z" fill="#282739"/>
<path d="M24.9256 12.9113C25.875 11.7716 26.3427 10.3066 26.2295 8.82764C24.779 8.97998 23.4392 9.6732 22.477 10.7692C22.0065 11.3046 21.6462 11.9275 21.4166 12.6022C21.187 13.277 21.0927 13.9904 21.139 14.7016C21.8644 14.7091 22.5822 14.5518 23.2381 14.2417C23.894 13.9316 24.471 13.4767 24.9256 12.9113V12.9113Z" fill="#282739"/>
<path d="M47.5895 30.5321H42.2645L40.9857 34.3081H38.7302L43.774 20.3379H46.1174L51.1612 34.3081H48.8672L47.5895 30.5321ZM42.816 28.7897H47.037L44.9562 22.6615H44.8979L42.816 28.7897Z" fill="#282739"/>
<path d="M62.0541 29.2158C62.0541 32.3809 60.36 34.4145 57.8035 34.4145C57.1559 34.4484 56.5118 34.2992 55.9451 33.984C55.3783 33.6689 54.9117 33.2005 54.5988 32.6325H54.5504V37.6774H52.4597V24.1225H54.4834V25.8166H54.5219C54.8492 25.2513 55.3236 24.7853 55.8947 24.4683C56.4658 24.1512 57.1121 23.9949 57.765 24.0159C60.3501 24.0159 62.0541 26.0594 62.0541 29.2158ZM59.9052 29.2158C59.9052 27.1536 58.8395 25.7979 57.2135 25.7979C55.6161 25.7979 54.5417 27.1822 54.5417 29.2158C54.5417 31.268 55.6161 32.6424 57.2135 32.6424C58.8395 32.6424 59.9051 31.2966 59.9051 29.2158H59.9052Z" fill="#282739"/>
<path d="M73.2651 29.2158C73.2651 32.3809 71.5705 34.4145 69.0139 34.4145C68.3663 34.4484 67.7223 34.2992 67.1555 33.984C66.5887 33.6689 66.1222 33.2005 65.8092 32.6325H65.7609V37.6774H63.6702V24.1225H65.6938V25.8166H65.7323C66.0596 25.2513 66.5341 24.7853 67.1051 24.4683C67.6762 24.1512 68.3226 23.9949 68.9755 24.0159C71.5606 24.0159 73.2651 26.0594 73.2651 29.2158ZM71.1156 29.2158C71.1156 27.1536 70.05 25.7979 68.424 25.7979C66.8266 25.7979 65.7521 27.1822 65.7521 29.2158C65.7521 31.268 66.8266 32.6424 68.424 32.6424C70.05 32.6424 71.1156 31.2966 71.1156 29.2158V29.2158Z" fill="#282739"/>
<path d="M80.6732 30.4157C80.8281 31.8011 82.174 32.7107 84.0131 32.7107C85.7753 32.7107 87.0431 31.801 87.0431 30.5519C87.0431 29.4675 86.2784 28.8183 84.4679 28.3733L82.6573 27.9371C80.092 27.3175 78.9011 26.1178 78.9011 24.171C78.9011 21.7606 81.0017 20.105 83.9834 20.105C86.9365 20.105 88.9602 21.7606 89.0283 24.171H86.9178C86.7915 22.7769 85.639 21.9353 83.9548 21.9353C82.2706 21.9353 81.1181 22.7868 81.1181 24.026C81.1181 25.0137 81.8542 25.5949 83.6549 26.0398L85.1941 26.4177C88.0604 27.0955 89.2502 28.2469 89.2502 30.2904C89.2502 32.904 87.1694 34.541 83.8581 34.541C80.7599 34.541 78.6682 32.9425 78.533 30.4156L80.6732 30.4157Z" fill="#282739"/>
<path d="M93.7645 21.7123V24.1227H95.7014V25.7783H93.7645V31.3934C93.7645 32.2657 94.1523 32.6722 95.0038 32.6722C95.2337 32.6682 95.4633 32.6521 95.6915 32.6239V34.2696C95.3087 34.3411 94.9196 34.3735 94.5303 34.3663C92.4681 34.3663 91.6639 33.5918 91.6639 31.6164V25.7783H90.183V24.1227H91.6639V21.7123H93.7645Z" fill="#282739"/>
<path d="M96.822 29.2159C96.822 26.0112 98.7095 23.9974 101.653 23.9974C104.606 23.9974 106.484 26.0112 106.484 29.2159C106.484 32.4294 104.616 34.4344 101.653 34.4344C98.6908 34.4344 96.822 32.4294 96.822 29.2159ZM104.354 29.2159C104.354 27.0176 103.347 25.7201 101.653 25.7201C99.9586 25.7201 98.9512 27.0275 98.9512 29.2159C98.9512 31.4231 99.9586 32.7107 101.653 32.7107C103.347 32.7107 104.354 31.4231 104.354 29.2159H104.354Z" fill="#282739"/>
<path d="M108.208 24.1224H110.202V25.856H110.251C110.386 25.3146 110.703 24.8361 111.149 24.501C111.595 24.1658 112.143 23.9945 112.701 24.0158C112.942 24.015 113.182 24.0411 113.417 24.0938V26.0494C113.113 25.9564 112.795 25.9138 112.478 25.923C112.174 25.9107 111.871 25.9643 111.59 26.08C111.309 26.1958 111.056 26.371 110.849 26.5936C110.642 26.8162 110.486 27.081 110.391 27.3698C110.296 27.6585 110.265 27.9644 110.299 28.2664V34.3078H108.208L108.208 24.1224Z" fill="#282739"/>
<path d="M123.056 31.3165C122.775 33.1655 120.974 34.4344 118.671 34.4344C115.708 34.4344 113.868 32.4492 113.868 29.2643C113.868 26.0695 115.717 23.9974 118.583 23.9974C121.401 23.9974 123.173 25.9332 123.173 29.0215V29.7378H115.979V29.8641C115.946 30.239 115.993 30.6166 116.117 30.9719C116.241 31.3272 116.439 31.6521 116.698 31.925C116.957 32.1979 117.271 32.4125 117.62 32.5546C117.968 32.6967 118.343 32.763 118.719 32.7491C119.213 32.7954 119.709 32.681 120.133 32.4229C120.556 32.1648 120.885 31.7767 121.071 31.3165L123.056 31.3165ZM115.989 28.2766H121.081C121.1 27.9396 121.049 27.6023 120.931 27.2859C120.813 26.9696 120.631 26.681 120.397 26.4382C120.162 26.1955 119.88 26.0038 119.568 25.8754C119.255 25.7469 118.92 25.6843 118.583 25.6915C118.242 25.6895 117.905 25.7549 117.59 25.884C117.275 26.0131 116.988 26.2033 116.747 26.4436C116.506 26.684 116.315 26.9697 116.185 27.2843C116.054 27.5989 115.988 27.9362 115.989 28.2766V28.2766Z" fill="#282739"/>
<path d="M41.3306 12.6601H42.2281C42.3827 12.6793 42.5395 12.6663 42.6887 12.622C42.838 12.5776 42.9764 12.5028 43.0953 12.4022C43.2142 12.3017 43.311 12.1776 43.3796 12.0378C43.4482 11.898 43.487 11.7456 43.4938 11.59C43.4938 10.9709 43.0279 10.571 42.238 10.571C42.0797 10.5489 41.9186 10.5587 41.7642 10.5999C41.6097 10.6411 41.4651 10.7128 41.3388 10.8108C41.2125 10.9088 41.1072 11.0311 41.029 11.1705C40.9508 11.3099 40.9013 11.4636 40.8834 11.6224H39.8979C39.9149 11.3341 39.991 11.0523 40.1216 10.7947C40.2522 10.537 40.4344 10.309 40.6569 10.1249C40.8794 9.9407 41.1374 9.80431 41.4149 9.72419C41.6924 9.64407 41.9834 9.62193 42.2699 9.65915C43.5915 9.65915 44.5221 10.3991 44.5221 11.4642C44.5252 11.821 44.4058 12.1681 44.1839 12.4475C43.962 12.727 43.6509 12.9218 43.3026 12.9995V13.0786C43.7155 13.097 44.1043 13.278 44.3841 13.5822C44.6639 13.8863 44.8118 14.2889 44.7957 14.7019C44.7651 14.9988 44.6756 15.2865 44.5324 15.5484C44.3892 15.8102 44.1951 16.0408 43.9616 16.2267C43.7281 16.4126 43.4598 16.55 43.1726 16.6308C42.8853 16.7117 42.5847 16.7343 42.2886 16.6975C41.9918 16.738 41.6899 16.7183 41.4009 16.6396C41.1119 16.5609 40.8417 16.4248 40.6064 16.2394C40.3711 16.0541 40.1755 15.8232 40.0314 15.5607C39.8872 15.2981 39.7973 15.0092 39.7672 14.7112H40.7681C40.8285 15.3534 41.4185 15.7676 42.2886 15.7676C43.1587 15.7676 43.7267 15.3023 43.7267 14.6464C43.7267 13.9812 43.1916 13.5714 42.2567 13.5714H41.3306V12.6601Z" fill="#282739"/>
<path d="M45.9327 15.1019C45.9327 14.1901 46.6128 13.6644 47.8169 13.5897L49.1891 13.5106V13.0733C49.1891 12.5383 48.8364 12.2361 48.152 12.2361C47.5939 12.2361 47.2083 12.441 47.0962 12.7992H46.1283C46.2305 11.9291 47.0501 11.371 48.1992 11.371C49.4692 11.371 50.1856 12.0032 50.1856 13.0733V16.5345H49.222V15.8226H49.1429C48.9824 16.078 48.7569 16.2862 48.4896 16.4259C48.2223 16.5657 47.9227 16.6319 47.6213 16.618C47.4087 16.6401 47.1937 16.6174 46.9904 16.5514C46.787 16.4854 46.5998 16.3774 46.4407 16.2346C46.2816 16.0918 46.1542 15.9172 46.0667 15.7221C45.9792 15.527 45.9336 15.3157 45.9327 15.1019V15.1019ZM49.1891 14.6691V14.2455L47.952 14.3246C47.2543 14.3713 46.9379 14.6086 46.9379 15.0552C46.9379 15.5112 47.3334 15.7765 47.8773 15.7765C48.0367 15.7926 48.1976 15.7765 48.3507 15.7292C48.5037 15.6818 48.6456 15.6042 48.768 15.5009C48.8904 15.3975 48.9907 15.2707 49.0631 15.1278C49.1354 14.9849 49.1783 14.8289 49.1891 14.6691V14.6691Z" fill="#282739"/>
<path d="M52.8387 12.3103V16.5345H51.839V11.4688H55.1745V12.3102L52.8387 12.3103Z" fill="#282739"/>
<path d="M61.2334 14.0003C61.2334 15.6097 60.4193 16.6189 59.1405 16.6189C58.8266 16.6403 58.5131 16.5716 58.2369 16.4208C57.9607 16.2701 57.7333 16.0436 57.5816 15.768H57.5024V18.2196H56.5027V11.4696H57.4651V12.3067H57.5398C57.6943 12.0215 57.9246 11.7845 58.2054 11.6219C58.4861 11.4594 58.8063 11.3776 59.1306 11.3855C60.4193 11.3855 61.2334 12.3902 61.2334 14.0003ZM60.2051 14.0003C60.2051 12.9302 59.6986 12.2836 58.8516 12.2836C58.0101 12.2836 57.4838 12.9439 57.4838 14.0047C57.4838 15.0604 58.01 15.7213 58.8472 15.7213C59.6986 15.7213 60.2051 15.0747 60.2051 14.0003Z" fill="#282739"/>
<path d="M62.5649 18.3489V17.4882C62.6731 17.5019 62.7821 17.5081 62.8912 17.5068C63.1042 17.5226 63.3155 17.4592 63.4846 17.3287C63.6537 17.1982 63.7687 17.0099 63.8074 16.7999L63.8821 16.5532L62.0485 11.4688H63.1373L64.4073 15.4925H64.4864L65.7521 11.4688H66.8122L64.9237 16.7438C64.4908 17.9765 64.0118 18.372 62.9791 18.372C62.8956 18.372 62.6583 18.3627 62.5649 18.3489Z" fill="#282739"/>
<path d="M67.5912 15.0971H68.5866C68.6843 15.5437 69.1029 15.7766 69.6885 15.7766C70.3543 15.7766 70.7629 15.4833 70.7629 15.0274C70.7629 14.539 70.396 14.3061 69.6885 14.3061H68.9304V13.5294H69.6753C70.2795 13.5294 70.5872 13.297 70.5872 12.8735C70.5872 12.5016 70.2894 12.2176 69.6753 12.2176C69.1161 12.2176 68.7074 12.4549 68.6425 12.8548H67.6791C67.7511 12.3953 68.0006 11.9824 68.3739 11.705C68.7472 11.4275 69.2145 11.3076 69.6753 11.3711C70.8794 11.3711 71.5682 11.9155 71.5682 12.7713C71.5739 13.0097 71.4975 13.2427 71.3519 13.4315C71.2063 13.6202 71.0004 13.7533 70.7684 13.8084V13.8875C71.0446 13.9232 71.298 14.0589 71.4807 14.269C71.6633 14.4791 71.7625 14.749 71.7594 15.0274C71.7594 15.9904 70.9398 16.6275 69.6885 16.6275C68.5822 16.6275 67.6835 16.1205 67.5912 15.0971Z" fill="#282739"/>
<path d="M73.1992 16.5345V11.4688H74.1901V14.9531H74.2692L76.6038 11.4688H77.5948V16.5346H76.6038V13.0316H76.5291L74.1901 16.5346L73.1992 16.5345Z" fill="#282739"/>
<path d="M83.0539 12.3111H81.4586V16.5353H80.4578V12.3111H78.8625V11.4696H83.0539V12.3111Z" fill="#282739"/>
<path d="M88.4394 15.1668C88.3032 15.6298 88.0086 16.0302 87.6072 16.2981C87.2058 16.5659 86.723 16.6843 86.2432 16.6324C85.9095 16.6412 85.5778 16.5773 85.2712 16.4451C84.9647 16.3129 84.6906 16.1155 84.4679 15.8667C84.2453 15.6179 84.0794 15.3237 83.9819 15.0044C83.8844 14.6851 83.8575 14.3484 83.9031 14.0177C83.8587 13.6859 83.886 13.3485 83.9833 13.0282C84.0806 12.708 84.2456 12.4124 84.4671 12.1614C84.6886 11.9105 84.9614 11.71 85.267 11.5737C85.5727 11.4373 85.9041 11.3682 86.2388 11.3711C87.6484 11.3711 88.4998 12.3341 88.4998 13.9248V14.2737H84.9227V14.3297C84.9068 14.5156 84.9301 14.7028 84.9909 14.8793C85.0517 15.0557 85.1488 15.2174 85.2758 15.3541C85.4029 15.4908 85.5571 15.5994 85.7287 15.6729C85.9002 15.7464 86.0852 15.7832 86.2718 15.7809C86.5108 15.8095 86.7529 15.7664 86.9673 15.657C87.1817 15.5477 87.3587 15.377 87.4759 15.1668L88.4394 15.1668ZM84.9226 13.5343H87.4803C87.4929 13.3643 87.4698 13.1936 87.4126 13.0331C87.3554 12.8727 87.2652 12.7259 87.1479 12.6023C87.0305 12.4787 86.8887 12.3811 86.7314 12.3156C86.574 12.2501 86.4048 12.2182 86.2344 12.222C86.0615 12.2196 85.8898 12.2519 85.7295 12.3171C85.5693 12.3822 85.4237 12.4788 85.3014 12.6011C85.1791 12.7235 85.0826 12.8691 85.0176 13.0293C84.9525 13.1896 84.9202 13.3613 84.9227 13.5343H84.9226Z" fill="#282739"/>
<path d="M92.6779 11.4688H94.962C95.9529 11.4688 96.5341 11.9708 96.5341 12.7569C96.5356 13.0063 96.4515 13.2487 96.2957 13.4435C96.1399 13.6383 95.9219 13.7736 95.6783 13.8269V13.906C95.9741 13.9247 96.2515 14.0563 96.4531 14.2737C96.6547 14.491 96.7651 14.7775 96.7615 15.0739C96.7615 15.9577 96.0968 16.5345 94.985 16.5345H92.6779V11.4688ZM93.6689 12.2361V13.5479H94.6599C95.2641 13.5479 95.553 13.3155 95.553 12.8871C95.553 12.4921 95.3015 12.2361 94.7708 12.2361L93.6689 12.2361ZM93.6689 14.2829V15.7672H94.8544C95.4454 15.7672 95.7618 15.5062 95.7618 15.0272C95.7618 14.5202 95.4037 14.2829 94.7291 14.2829L93.6689 14.2829Z" fill="#282739"/>
</g>
<defs>
<clipPath id="clip0_1_16010">
<rect width="134.622" height="45" fill="white"/>
</clipPath>
</defs>
</symbol>
<symbol  viewBox="0 0 20 20" fill="none" xmlns="http://www.w3.org/2000/svg" id="ftVK">
<path d="M16.5958 10.8567C16.2725 10.4484 16.365 10.2667 16.5958 9.90175C16.6 9.89758 19.2692 6.20925 19.5442 4.95841L19.5458 4.95758C19.6825 4.50175 19.5458 4.16675 18.885 4.16675H16.6983C16.1417 4.16675 15.885 4.45425 15.7475 4.77591C15.7475 4.77591 14.6342 7.44092 13.0592 9.16842C12.5508 9.66758 12.3158 9.82758 12.0383 9.82758C11.9017 9.82758 11.6892 9.66758 11.6892 9.21175V4.95758C11.6892 4.41091 11.5333 4.16675 11.0725 4.16675H7.63417C7.285 4.16675 7.0775 4.42175 7.0775 4.65925C7.0775 5.17758 7.865 5.29675 7.94667 6.75508V9.91925C7.94667 10.6126 7.82083 10.7401 7.54167 10.7401C6.79833 10.7401 4.99417 8.06425 3.925 5.00175C3.70917 4.40758 3.49833 4.16758 2.9375 4.16758H0.75C0.125833 4.16758 0 4.45508 0 4.77675C0 5.34508 0.743333 8.17092 3.45667 11.9042C5.265 14.4526 7.81167 15.8334 10.1283 15.8334C11.5208 15.8334 11.6908 15.5267 11.6908 14.9992C11.6908 12.5642 11.565 12.3342 12.2625 12.3342C12.5858 12.3342 13.1425 12.4942 14.4425 13.7234C15.9283 15.1809 16.1725 15.8334 17.0042 15.8334H19.1908C19.8142 15.8334 20.13 15.5267 19.9483 14.9217C19.5325 13.6492 16.7225 11.0317 16.5958 10.8567Z" fill="#4B729F"/>
</symbol>
<symbol viewBox="0 0 20 20" fill="none" xmlns="http://www.w3.org/2000/svg" id="ftYT">
<g clip-path="url(#clip0_1_16099)">
<path d="M0.435077 14.895C0.843411 16.3434 2.09258 16.6084 2.17591 16.6592C4.23174 17.2192 15.7551 17.2209 17.8417 16.6592C19.2709 16.2459 19.5334 14.9784 19.5826 14.895C20.1267 12 20.1626 8.22587 19.5576 4.94087L19.5826 5.10421C19.1742 3.65587 17.9251 3.39087 17.8417 3.34004C15.8134 2.78921 4.26008 2.76837 2.17591 3.34004C0.746744 3.75421 0.484244 5.02087 0.435077 5.10421C-0.147423 8.14671 -0.17659 11.6375 0.435077 14.895ZM8.00674 13.0425V6.96504L13.2284 10.0084L8.00674 13.0425Z" fill="#E53935"/>
</g>
<defs>
<clipPath id="clip0_1_16099">
<rect width="20" height="20" fill="white"/>
</clipPath>
</defs>
</symbol>
<symbol viewBox="0 0 20 20" fill="none" xmlns="http://www.w3.org/2000/svg" id="ftTG">
<g clip-path="url(#clip0_1_16105)">
<path d="M7.84737 12.6509L7.51654 17.3042C7.98987 17.3042 8.19487 17.1009 8.44071 16.8567L10.6599 14.7359L15.2582 18.1034C16.1015 18.5734 16.6957 18.3259 16.9232 17.3276L19.9415 3.18422L19.9424 3.18339C20.2099 1.93672 19.4915 1.44922 18.6699 1.75505L0.928205 8.54755C-0.282628 9.01755 -0.264295 9.69255 0.722372 9.99839L5.25821 11.4092L15.794 4.81672C16.2899 4.48839 16.7407 4.67005 16.3699 4.99839L7.84737 12.6509Z" fill="#039BE5"/>
</g>
<defs>
<clipPath id="clip0_1_16105">
<rect width="20" height="20" fill="white"/>
</clipPath>
</defs>
</symbol>
<symbol  viewBox="0 0 35 24" fill="none" xmlns="http://www.w3.org/2000/svg" id="googlepay">
<rect x="0.243409" y="0.243409" width="33.5905" height="22.8805" rx="2.6775" fill="white" stroke="#EAEBED" stroke-width="0.486818"/>
<path fill-rule="evenodd" clip-rule="evenodd" d="M16.0943 15.3426V12.4013H17.6124C18.2345 12.4013 18.7595 12.1929 19.1875 11.7818L19.2903 11.6775C20.0721 10.8264 20.0208 9.50051 19.1875 8.71308C18.7709 8.2962 18.2002 8.07039 17.6124 8.08197H15.1755V15.3426H16.0943ZM16.0944 11.5096V8.97357H17.6356C17.9666 8.97357 18.2806 9.10095 18.5146 9.33255C19.0112 9.81891 19.0226 10.6295 18.5432 11.1332C18.3091 11.3822 17.9781 11.5212 17.6356 11.5096H16.0944ZM23.5763 10.7627C23.1825 10.3979 22.646 10.2127 21.9669 10.2127C21.0937 10.2127 20.4374 10.5369 20.0037 11.1796L20.8141 11.6949C21.1108 11.2549 21.516 11.0348 22.0297 11.0348C22.355 11.0348 22.6689 11.1564 22.9143 11.3765C23.154 11.5849 23.2909 11.886 23.2909 12.2044V12.4186C22.9371 12.2218 22.4919 12.1176 21.9441 12.1176C21.3049 12.1176 20.7912 12.2681 20.4089 12.575C20.0265 12.8818 19.8325 13.2871 19.8325 13.8025C19.8211 14.2714 20.0208 14.7173 20.3746 15.0184C20.7342 15.3426 21.1907 15.5047 21.7272 15.5047C22.3607 15.5047 22.8629 15.221 23.2453 14.6536H23.2852V15.3426H24.1641V12.2797C24.1641 11.637 23.9701 11.1275 23.5763 10.7627ZM21.0825 14.4278C20.8941 14.2888 20.78 14.063 20.78 13.8199C20.78 13.5477 20.9055 13.3219 21.151 13.1424C21.4021 12.9629 21.7161 12.8703 22.0871 12.8703C22.6008 12.8645 23.0003 12.9803 23.2857 13.2119C23.2857 13.6056 23.1316 13.9472 22.8291 14.2367C22.5551 14.5147 22.1841 14.671 21.796 14.671C21.5391 14.6768 21.288 14.5899 21.0825 14.4278ZM26.1388 17.5254L29.2091 10.3748H28.2104L26.7894 13.9414H26.7722L25.3169 10.3748H24.3182L26.3328 15.0241L25.1914 17.5254H26.1388Z" fill="#282739"/>
<path d="M12.9222 11.7644C12.9222 11.4807 12.8994 11.197 12.8537 10.9191H8.97864V12.5229H11.1987C11.1074 13.0382 10.8106 13.5014 10.3769 13.7909V14.8331H11.7009C12.477 14.1093 12.9222 13.0382 12.9222 11.7644Z" fill="#4285F4"/>
<path d="M8.97882 15.8406C10.086 15.8406 11.0219 15.47 11.7011 14.8331L10.377 13.7909C10.0061 14.0457 9.5324 14.1905 8.97882 14.1905C7.9059 14.1905 6.99848 13.4551 6.67318 12.4708H5.3092V13.5478C6.00546 14.9547 7.42651 15.8406 8.97882 15.8406Z" fill="#34A853"/>
<path d="M6.67333 12.4708C6.50209 11.9555 6.50209 11.3939 6.67333 10.8728V9.80164H5.30913C4.72122 10.977 4.72122 12.3666 5.30913 13.542L6.67333 12.4708Z" fill="#FBBC04"/>
<path d="M8.97882 9.15308C9.56665 9.1415 10.1316 9.36731 10.554 9.7784L11.7296 8.58566C10.982 7.87929 10.0004 7.49136 8.97882 7.50294C7.42651 7.50294 6.00546 8.39459 5.3092 9.80156L6.67318 10.8785C6.99848 9.88841 7.9059 9.15308 8.97882 9.15308Z" fill="#EA4335"/>
</symbol>
<symbol viewBox="0 0 35 24" fill="none" xmlns="http://www.w3.org/2000/svg" id="applepay">
<rect x="0.243409" y="0.243409" width="33.5905" height="22.8805" rx="2.6775" fill="white" stroke="#EAEBED" stroke-width="0.486818"/>
<path fill-rule="evenodd" clip-rule="evenodd" d="M9.32751 8.12318C9.04148 8.4658 8.58384 8.73603 8.12619 8.69743C8.06898 8.23417 8.29304 7.74195 8.55523 7.43794C8.84126 7.08567 9.34182 6.83473 9.74703 6.81543C9.7947 7.29799 9.60878 7.77091 9.32751 8.12318ZM9.74222 8.78911C9.33904 8.76562 8.97116 8.91185 8.67401 9.02996C8.48278 9.10597 8.32085 9.17034 8.19766 9.17034C8.05941 9.17034 7.89079 9.10253 7.70147 9.0264C7.4534 8.92664 7.16979 8.81259 6.87238 8.81806C6.19067 8.82772 5.55664 9.21859 5.20864 9.8411C4.49356 11.0861 5.02272 12.9295 5.71396 13.9429C6.05243 14.4448 6.45764 14.9949 6.99156 14.9756C7.22645 14.9666 7.39542 14.894 7.57029 14.8189C7.77161 14.7324 7.98075 14.6426 8.3073 14.6426C8.62253 14.6426 8.82252 14.7301 9.0145 14.8141C9.19704 14.8939 9.37234 14.9706 9.63258 14.9659C10.1856 14.9563 10.5336 14.4641 10.872 13.9622C11.2373 13.4236 11.3978 12.8979 11.4222 12.8181L11.425 12.8089C11.4245 12.8083 11.4199 12.8062 11.412 12.8025C11.2899 12.7459 10.3566 12.3134 10.3477 11.1537C10.3387 10.1802 11.0879 9.68703 11.2058 9.60939C11.213 9.60466 11.2179 9.60148 11.22 9.59982C10.7433 8.88562 9.99965 8.80841 9.74222 8.78911ZM13.5703 14.9128V7.38968H16.3591C17.7988 7.38968 18.8047 8.39341 18.8047 9.8604C18.8047 11.3274 17.7797 12.3408 16.321 12.3408H14.724V14.9128H13.5703ZM14.7239 8.37411H16.0539C17.055 8.37411 17.6271 8.91458 17.6271 9.86523C17.6271 10.8159 17.055 11.3612 16.0491 11.3612H14.7239V8.37411ZM22.6137 14.0104C22.3086 14.5992 21.6364 14.9707 20.9118 14.9707C19.8392 14.9707 19.0907 14.3241 19.0907 13.3493C19.0907 12.3842 19.8154 11.8293 21.1549 11.7472L22.5946 11.6604V11.2454C22.5946 10.6325 22.1989 10.2995 21.4934 10.2995C20.9118 10.2995 20.4875 10.6036 20.4017 11.0668H19.3625C19.3958 10.092 20.3016 9.38267 21.5268 9.38267C22.8473 9.38267 23.7054 10.0824 23.7054 11.1681V14.9128H22.6375V14.0104H22.6137ZM21.2216 14.078C20.6066 14.078 20.2157 13.7788 20.2157 13.3204C20.2157 12.8475 20.5923 12.5724 21.3122 12.529L22.5945 12.4469V12.8716C22.5945 13.5761 22.0034 14.078 21.2216 14.078ZM27.2473 15.2072C26.7849 16.5246 26.2558 16.9589 25.1307 16.9589C25.0449 16.9589 24.7589 16.9493 24.6921 16.93V16.0276C24.7636 16.0372 24.94 16.0469 25.0306 16.0469C25.5407 16.0469 25.8267 15.8297 26.0031 15.2651L26.108 14.9321L24.1534 9.45506H25.3595L26.7182 13.8995H26.742L28.1007 9.45506H29.2734L27.2473 15.2072Z" fill="#282739"/>
</symbol>
<symbol viewBox="0 0 35 24" fill="none" xmlns="http://www.w3.org/2000/svg" id="visa">
<rect x="0.243409" y="0.243409" width="33.5905" height="22.8805" rx="2.6775" fill="white" stroke="#EAEBED" stroke-width="0.486818"/>
<path fill-rule="evenodd" clip-rule="evenodd" d="M10.3452 15.8296H8.28073L6.73267 9.92363C6.65919 9.65196 6.50317 9.41179 6.27368 9.29859C5.70096 9.01412 5.06985 8.78772 4.38138 8.67354V8.44616H7.707C8.16598 8.44616 8.51022 8.78772 8.5676 9.18441L9.37082 13.4446L11.4342 8.44616H13.4413L10.3452 15.8296ZM14.5887 15.8296H12.6391L14.2445 8.44616H16.1942L14.5887 15.8296ZM18.7166 10.4916C18.774 10.0939 19.1182 9.86655 19.5198 9.86655C20.1509 9.80946 20.8384 9.92364 21.4121 10.2071L21.7563 8.61744C21.1826 8.39006 20.5515 8.27588 19.9788 8.27588C18.0865 8.27588 16.7095 9.29859 16.7095 10.718C16.7095 11.7978 17.6849 12.3648 18.3733 12.7063C19.1182 13.0469 19.4051 13.2743 19.3477 13.6149C19.3477 14.1257 18.774 14.3531 18.2012 14.3531C17.5128 14.3531 16.8243 14.1828 16.1942 13.8983L15.8499 15.489C16.5384 15.7725 17.2833 15.8867 17.9717 15.8867C20.0935 15.9428 21.4121 14.9211 21.4121 13.3875C21.4121 11.4562 18.7166 11.343 18.7166 10.4916ZM28.2355 15.8296L26.6874 8.44616H25.0246C24.6804 8.44616 24.3361 8.67354 24.2214 9.01412L21.3547 15.8296H23.3618L23.7624 14.7508H26.2284L26.4579 15.8296H28.2355ZM25.3115 10.4345L25.8842 13.2172H24.2787L25.3115 10.4345Z" fill="#172B85"/>
</symbol>
<symbol viewBox="0 0 35 24" fill="none" xmlns="http://www.w3.org/2000/svg" id="mastercard">
<rect x="0.243409" y="0.243409" width="33.5905" height="22.8805" rx="2.6775" fill="white" stroke="#EAEBED" stroke-width="0.486818"/>
<path fill-rule="evenodd" clip-rule="evenodd" d="M21.5404 18.5283C25.2097 18.5283 28.1842 15.5192 28.1842 11.8073C28.1842 8.0954 25.2097 5.0863 21.5404 5.0863C19.8959 5.0863 18.391 5.69069 17.2308 6.69187C16.0707 5.69071 14.5657 5.08633 12.9213 5.08633C9.25198 5.08633 6.27742 8.09542 6.27742 11.8073C6.27742 15.5192 9.25198 18.5283 12.9213 18.5283C14.5658 18.5283 16.0707 17.9239 17.2308 16.9228C18.391 17.9239 19.8959 18.5283 21.5404 18.5283Z" fill="#ED0006"/>
<path fill-rule="evenodd" clip-rule="evenodd" d="M17.2308 16.9227C18.6594 15.69 19.5652 13.8557 19.5652 11.8073C19.5652 9.75895 18.6594 7.92461 17.2308 6.69186C18.391 5.69069 19.8959 5.0863 21.5404 5.0863C25.2097 5.0863 28.1842 8.0954 28.1842 11.8073C28.1842 15.5192 25.2097 18.5283 21.5404 18.5283C19.8959 18.5283 18.391 17.9239 17.2308 16.9227Z" fill="#F9A000"/>
<path fill-rule="evenodd" clip-rule="evenodd" d="M17.2309 16.9227C18.6594 15.69 19.5652 13.8557 19.5652 11.8073C19.5652 9.75897 18.6594 7.92465 17.2309 6.69189C15.8023 7.92465 14.8965 9.75897 14.8965 11.8073C14.8965 13.8557 15.8023 15.69 17.2309 16.9227Z" fill="#FF5E00"/>
</symbol>
<symbol viewBox="0 0 35 24" fill="none" xmlns="http://www.w3.org/2000/svg" id="maestro">
<rect x="0.243409" y="0.243409" width="33.5905" height="22.8805" rx="2.6775" fill="white" stroke="#EAEBED" stroke-width="0.486818"/>
<path d="M19.5652 11.8073C19.5652 15.5192 16.5906 18.5283 12.9213 18.5283C9.25198 18.5283 6.27742 15.5192 6.27742 11.8073C6.27742 8.0954 9.25198 5.0863 12.9213 5.0863C16.5906 5.0863 19.5652 8.0954 19.5652 11.8073Z" fill="#ED0006"/>
<path d="M28.1842 11.8073C28.1842 15.5192 25.2097 18.5283 21.5404 18.5283C17.871 18.5283 14.8965 15.5192 14.8965 11.8073C14.8965 8.0954 17.871 5.0863 21.5404 5.0863C25.2097 5.0863 28.1842 8.0954 28.1842 11.8073Z" fill="#0099DF"/>
<path fill-rule="evenodd" clip-rule="evenodd" d="M17.2309 16.9227C18.6594 15.69 19.5652 13.8557 19.5652 11.8073C19.5652 9.75897 18.6594 7.92465 17.2309 6.69189C15.8023 7.92465 14.8965 9.75897 14.8965 11.8073C14.8965 13.8557 15.8023 15.69 17.2309 16.9227Z" fill="#6C6BBD"/>
</symbol>
<symbol viewBox="0 0 35 24" fill="none" xmlns="http://www.w3.org/2000/svg" id="webmoney">
<rect x="0.243409" y="0.243409" width="33.5905" height="22.8805" rx="2.6775" fill="white" stroke="#EAEBED" stroke-width="0.486818"/>
<path fill-rule="evenodd" clip-rule="evenodd" d="M12.8201 15.7327C12.9727 15.6535 13.2319 15.5495 13.5066 15.5495C14.137 15.5495 14.4778 15.9752 14.4778 16.7673C14.4778 17.6927 14.0203 18.1432 13.2829 18.1432C13.0133 18.1432 12.5964 18.0591 12.2912 17.9005V14.4458L12.8201 14.322V15.7327ZM12.8151 17.7173C12.9777 17.7867 13.1558 17.7965 13.283 17.7965C13.6592 17.7965 13.944 17.5689 13.944 16.7673C13.944 16.1385 13.7101 15.9356 13.3694 15.9356C13.1659 15.9356 13.0186 15.99 12.8151 16.0989V17.7173ZM7.39919 15.6137H7.4348L8.12621 18.0837H8.67534L9.49923 14.5743H8.90422L8.38558 17.1928H8.35014L7.64318 14.5743H7.19063L6.52962 17.1928H6.494L5.92446 14.5743H5.355L6.17879 18.0837H6.72783L7.39919 15.6137ZM11.7525 17.9153V17.5391C11.4728 17.7025 11.2187 17.7965 10.9441 17.7965C10.4203 17.7965 10.1712 17.5341 10.1712 16.9402H11.8288V16.7572C11.8288 15.9505 11.4372 15.5495 10.8017 15.5495C10.039 15.5495 9.64744 16.094 9.64744 16.8462C9.64744 17.6284 9.99827 18.1432 10.8525 18.1432C11.2187 18.1432 11.5237 18.0442 11.7525 17.9153ZM11.3457 16.6087H10.1815C10.2373 16.1138 10.4761 15.8812 10.7865 15.8812C11.0611 15.8812 11.3205 16.0889 11.3457 16.6087ZM16.817 17.3412H16.7914L15.6524 14.5743H15.0372V18.0837H15.4948V15.599H15.5405L16.578 18.0837H16.9033L17.9407 15.5396H17.9865V18.0837H18.5357V14.5743H17.9051L16.817 17.3412ZM19.0951 16.8462C19.0951 15.98 19.5833 15.5495 20.2545 15.5495C20.9257 15.5495 21.414 15.98 21.414 16.8462C21.414 17.6927 20.9512 18.1432 20.2545 18.1432C19.5577 18.1432 19.0951 17.6927 19.0951 16.8462ZM20.8799 16.8462C20.8799 16.1781 20.6001 15.896 20.2544 15.896C19.9188 15.896 19.6289 16.1781 19.6289 16.8462C19.6289 17.5245 19.8935 17.7965 20.2544 17.7965C20.6154 17.7965 20.8799 17.5245 20.8799 16.8462ZM23.1933 15.5495C22.6088 15.5495 22.1256 15.7821 21.8968 15.9157V18.0837H22.4257V16.1236C22.5833 16.0347 22.8426 15.9454 23.0461 15.9454C23.3054 15.9454 23.5035 16.0147 23.5035 16.4058V18.0837H24.0324V16.2918C24.0324 15.7821 23.8037 15.5495 23.1933 15.5495ZM26.6103 17.5391V17.9153C26.3816 18.0442 26.0767 18.1432 25.7104 18.1432C24.8563 18.1432 24.5053 17.6284 24.5053 16.8462C24.5053 16.094 24.897 15.5495 25.6596 15.5495C26.2954 15.5495 26.687 15.9505 26.687 16.7572V16.9402H25.0293C25.0293 17.5341 25.2784 17.7965 25.8021 17.7965C26.0767 17.7965 26.3309 17.7025 26.6103 17.5391ZM25.0394 16.6087H26.2038C26.1785 16.0889 25.919 15.8812 25.6444 15.8812C25.3341 15.8812 25.0954 16.1138 25.0394 16.6087ZM29.2091 15.6336H28.665L28.0851 17.455H28.0548L27.4039 15.6336H26.8446L27.8209 18.1084C27.6987 18.4746 27.4853 18.7421 27.1395 18.7421V19.1478C27.724 19.1478 28.0343 18.7916 28.2886 18.1084L29.2091 15.6336Z" fill="#0068A3"/>
<path fill-rule="evenodd" clip-rule="evenodd" d="M16.9411 4.19958C17.6409 4.19958 18.3036 4.35821 18.8938 4.63982C18.9866 4.68263 19.079 4.72972 19.1717 4.78172L18.7615 5.13914L18.1451 4.51875L17.1047 5.42198L16.4868 4.76553L14.5488 6.46589L15.7912 7.79868L15.303 8.21668L16.5267 9.55148L16.0413 9.96851L17.79 11.8631L18.828 10.9329L19.7255 11.9297C19.5469 12.0648 19.3525 12.1919 19.1383 12.3094C18.4893 12.6696 17.7393 12.8759 16.9411 12.8759C14.4865 12.8759 12.4845 10.9269 12.4845 8.53786C12.4845 6.1483 14.4865 4.19958 16.9411 4.19958ZM16.1289 8.26363L17.1886 7.33466L18.1429 8.36649L17.0832 9.2951L16.1289 8.26363ZM17.9424 9.11744L16.8825 10.0461L17.837 11.078L18.8967 10.149L17.9424 9.11744ZM15.3706 6.50204L16.4304 5.57333L17.3844 6.6049L16.3246 7.5336L15.3706 6.50204ZM18.1102 5.30562L17.3154 6.00208L18.031 6.77602L18.8258 6.07929L18.1102 5.30562ZM18.7276 9.19281L19.5227 8.49608L20.2383 9.26993L19.4434 9.96648L18.7276 9.19281ZM20.2215 10.0588L19.4268 10.7556L20.1424 11.529L20.9372 10.8324L20.2215 10.0588ZM19.7469 7.17389L20.2768 6.7095L20.7538 7.22528L20.2242 7.68959L19.7469 7.17389ZM19.5998 5.17702L19.0699 5.64133L19.5469 6.15711L20.0769 5.6928L19.5998 5.17702ZM20.4243 8.70631L20.9542 8.24192L21.4313 8.75761L20.9014 9.22201L20.4243 8.70631ZM18.8427 6.86115L18.048 7.55797L18.7637 8.33138L19.5583 7.63483L18.8427 6.86115Z" fill="#0068A3"/>
</symbol>
<symbol viewBox="0 0 35 24" fill="none" xmlns="http://www.w3.org/2000/svg" id="qiwi">
<rect x="0.243409" y="0.243409" width="33.5905" height="22.8805" rx="2.6775" fill="white" stroke="#EAEBED" stroke-width="0.486818"/>
<path fill-rule="evenodd" clip-rule="evenodd" d="M9.73637 11.2624C9.73637 15.0323 12.8109 18.1068 16.6174 18.1068C17.0846 18.1068 17.5518 18.0659 18.0886 18.0189C18.6873 17.9665 19.3725 17.9065 20.2409 17.8872C21.5585 17.8872 22.986 18.363 24.5598 19.7538C24.7062 19.9002 24.9259 19.7172 24.7794 19.5342C23.2056 17.5944 21.7782 17.2284 20.3507 16.899C18.5939 16.4963 17.6788 15.5447 17.0566 14.4467C16.9468 14.2271 16.8736 14.2637 16.8736 14.5565C16.837 14.9957 16.8736 15.3983 16.9468 15.8009H16.7272C14.2383 15.8009 12.1886 13.7512 12.1886 11.2624C12.1886 8.77349 14.2383 6.72382 16.7272 6.72382C19.2161 6.72382 21.2657 8.77349 21.2657 11.2624C21.2657 11.4088 21.2657 11.5918 21.2291 11.7748C20.8631 11.7016 20.2409 11.7016 19.7651 11.7382C19.5821 11.7382 19.5821 11.8114 19.7285 11.848C21.1925 12.1408 22.2174 13.0558 22.4736 14.7395C22.4736 14.8127 22.5102 14.8127 22.5468 14.7761C23.1324 13.7512 23.4984 12.5434 23.4984 11.2624C23.4984 7.45585 20.4239 4.38135 16.6174 4.38135C12.8109 4.38135 9.73637 7.49245 9.73637 11.2624ZM21.5951 14.0807C21.8513 14.1905 21.9611 14.5565 21.9611 14.7395C21.9977 15.0323 21.9245 15.1787 21.8147 15.1787C21.7049 15.1787 21.5585 15.0689 21.4121 14.8127C21.2657 14.5565 21.1925 14.3003 21.2657 14.1539C21.3755 14.0807 21.4853 14.0441 21.5951 14.0807ZM20.0945 15.2153C20.2409 15.2153 20.4239 15.2885 20.6069 15.4349C20.8997 15.6911 21.0095 15.984 20.8631 16.2036C20.7899 16.3134 20.6069 16.3866 20.4605 16.3866C20.2775 16.3866 20.0945 16.3134 19.9847 16.2036C19.6918 15.9474 19.6186 15.5813 19.8016 15.3617C19.8383 15.2885 19.9481 15.2153 20.0945 15.2153Z" fill="#F28A1A"/>
</symbol>

</svg>